<svg xmlns="http://www.w3.org/2000/svg" xmlns:xlink="http://www.w3.org/1999/xlink" version="1.1" style="" width="488" height="422"><rect id="backgroundrect" width="100%" height="100%" x="0" y="0" fill="none" stroke="none" class="" style=""/>



































































































































































































<g class="currentLayer" style=""><title>Layer 1</title><g id="svg_1703" class="">
	<g id="svg_1704">
		<path class="st29" d="M259.3382396697998,292.9000053405762 c0,0 45.1,-52.5 42.8,-106.8 c-2.3,-54.4 -38.5,-71.7 -38.5,-71.7 l-73.5,16 c0,0 -28.5,6.8 -34.4,29.7 c0,0 -14,-5.9 -37,9.8 s-64.6,56 -74.8,113.8 c-9.8,55.8 -22.5,47.9 -34,54.6 c-11.5,6.8 -11,26.6 7.2,33.6 c18.3,7 29.3,10 12.3,13.2 s-30.6,3.4 -28.9,18.8 c1.7000000000000002,15.4 43.6,35.3 98.1,-14.1 c0,0 14.5,7.8 67.2,1.1 c0,0 4.1,6.5 19,4.1 c14.9,-2.4 33.2,2.9 34.5,-11.4 c0,0 0.30000000000000004,-9.7 -6.7,-13.9 c0,0 2.4,-8.3 18.4,-7.1 S259.3382396697998,292.9000053405762 259.3382396697998,292.9000053405762 z" style="fill: rgb(116, 82, 119);" id="svg_1705"/>
		<path class="st4" d="M32.2382396697998,421.7000053405762 c-11.1,0 -18.5,-3.1 -22.8,-5.7 c-5.4,-3.3 -8.8,-7.7 -9.3,-12 c-1.5,-14 9.4,-15.8 23.3,-18.2 c1.9,-0.30000000000000004 3.9,-0.7000000000000001 5.9,-1 c6.6,-1.2 8,-2.3 8.1,-3 c0.1,-1.6 -6.8,-4.2 -14.7,-7.2 c-1.8,-0.7000000000000001 -3.7,-1.4 -5.7,-2.2 c-8.8,-3.4 -14.5,-10.2 -15.2,-18.4 c-0.6000000000000001,-6.7 2.5,-12.8 7.9,-16 c2.2,-1.3 4.5,-2.1 6.7,-2.8 c9.4,-3.2 19.2,-6.5 27.1,-51.5 c4.5,-25.6 15.5,-50.1 32.7,-72.9 c17.3,-22.9 35.3,-36.4 42.3,-41.2 c13.2,-9.1 23.5,-10.9 29.8,-10.9 c3.7,0 6.2,0.7000000000000001 7.1,1 c3.2,-11.7 12.4,-19.1 19.5,-23.3 c7.8,-4.5 15,-6.3 15.1,-6.3 l73.7,-16.1 l0.1,0.1 c0.1,0 9.2,4.5 18.5,15.6 c8.5,10.2 19,28.3 20.2,56.5 c0.7000000000000001,15.6 -2.4,41 -20.6,74 c-10.4,18.9 -21.2,31.8 -22.3,33 c-0.7000000000000001,4.2 -12.4,69.8 -28.1,69.8 c0,0 0,0 0,0 c-0.1,0 -0.30000000000000004,0 -0.4,0 c-1,-0.1 -2,-0.1 -3,-0.1 c-9.8,0 -13.9,4.2 -14.9,6.6 c6.8,4.4 6.6,13.7 6.6,14.1 c-1,10.7 -11.2,10.9 -22.1,11.1 c-4.2,0.1 -8.6,0.1 -12.8,0.8 c-2.2,0.4 -4.3,0.5 -6.3,0.5 c-8.9,0 -12.3,-3.6 -13.1,-4.6 c-14.2,1.8 -26.9,2.7 -37.7,2.7 c-20,0 -27.7,-3 -29.2,-3.7 C70.23823966979981,416.2000053405762 46.838239669799805,421.7000053405762 32.2382396697998,421.7000053405762 zM148.3382396697998,159.50000534057617 c-6.2,0 -16.3,1.9 -29.3,10.8 c-6.9,4.7 -24.9,18.2 -42.1,41 c-17.1,22.6 -28,47 -32.5,72.5 c-8,45.5 -18,48.9 -27.6,52.2 c-2.3,0.8 -4.4,1.5 -6.5,2.8 c-5.1,3 -8,8.8 -7.5,15.2 c0.6000000000000001,7.8 6.1,14.4 14.6,17.6 c2,0.8 3.9,1.5 5.7,2.2 c10.5,3.9 15.5,5.9 15.3,8.1 c-0.1,1.5 -2.7,2.6 -8.8,3.7 c-2,0.4 -4,0.7000000000000001 -6,1.1 c-14,2.4 -24,4.1 -22.6,17.3 c0.9,8.1 13.1,16.9 31.2,16.9 c14.5,0 37.7,-5.4 66.2,-31.3 l0.2,-0.2 l0.30000000000000004,0.1 c0.1,0 7.3,3.8 29.1,3.8 c10.9,0 23.7,-0.9 37.9,-2.8 l0.30000000000000004,0 l0.1,0.2 c0,0 3,4.4 12.5,4.4 c1.9,0 4,-0.2 6.1,-0.5 c4.2,-0.7000000000000001 8.6,-0.7000000000000001 12.9,-0.8 c10.9,-0.2 20.4,-0.30000000000000004 21.2,-10.3 c0,-0.1 0.2,-9.4 -6.5,-13.5 l-0.30000000000000004,-0.2 l0.1,-0.30000000000000004 c0.1,-0.30000000000000004 2.4,-7.5 15.8,-7.5 c1,0 2,0 3,0.1 c0.1,0 0.2,0 0.4,0 c15.2,0 27.2,-68.5 27.3,-69.2 l0,-0.1 l0.1,-0.1 c0.1,-0.1 11.4,-13.3 22.2,-33 c18.1,-32.8 21.1,-58.1 20.5,-73.6 c-1.2,-28 -11.5,-45.9 -20,-56 c-8.6,-10.2 -17,-14.7 -18.1,-15.3 l-73.4,16 c-0.30000000000000004,0.1 -28.3,7 -34.1,29.4 l-0.1,0.5 l-0.5,-0.2 C155.5382396697998,160.60000534057616 152.9382396697998,159.50000534057617 148.3382396697998,159.50000534057617 z" style="fill: rgb(81, 39, 85);" id="svg_1706"/>
	</g>
	<g id="svg_1707">
		<path class="st29" d="M274.7382396697998,190.80000534057618 c0,0 5.1,32.3 -9.7,60.8 c-14.9,28.5 -2.1,85.2 26.7,111.8 c0,0 20.8,4.3 20.4,20.1 s-16.6,13.8 -16.6,13.8 L271.3382396697998,397.4000053405762 c0,0 -15.5,1.6 -19.2,-11 c0,0 -17.2,-6.7 -19,-16.8 c-1.7000000000000002,-10.2 -6,-15.7 -25.3,-46.7 s-24.8,-64.6 -24.8,-64.6 " style="fill: rgb(116, 82, 119);" id="svg_1708"/>
		<path class="st4" d="M269.7382396697998,397.9000053405762 c-4.1,0 -14.9,-1 -18,-11.1 c-2,-0.8 -17.4,-7.3 -19,-17.1 c-1.5,-8.6 -4.9,-14 -17.5,-34.1 c-2.3,-3.6 -4.9,-7.8 -7.8,-12.5 c-19.1,-30.7 -24.8,-64.4 -24.9,-64.7 c0,-0.2 0.1,-0.5 0.4,-0.5 c0.2,0 0.5,0.1 0.5,0.4 c0.1,0.30000000000000004 5.7,33.8 24.8,64.4 c2.9,4.7 5.5,8.8 7.8,12.5 c12.7,20.2 16.1,25.7 17.6,34.4 c0.9,5.1 5.9,9.3 9.9,11.9 c4.4,2.9 8.7,4.6 8.8,4.6 l0.2,0.1 l0.1,0.2 c3.6,12.1 18.6,10.7 18.8,10.7 l0,0 l24.2,-0.1 l0,0 c0.1,0 7.2,0.8 11.9,-3.2 c2.7,-2.3 4.1,-5.7 4.2,-10.2 c0.2,-6.4 -3.1,-11.7 -9.8,-15.6 c-5,-3 -10.2,-4.1 -10.2,-4.1 l-0.1,0 l-0.1,-0.1 c-13.7,-12.7 -24.6,-32.9 -29.9,-55.5 c-5.2,-22.4 -4.1,-43.1 3.1,-56.9 c14.7,-28 9.8,-60.2 9.7,-60.5 c0,-0.2 0.1,-0.4 0.4,-0.5 c0.2,0 0.4,0.1 0.5,0.4 c0.1,0.30000000000000004 5,32.8 -9.8,61 c-7.1,13.6 -8.2,34.1 -3,56.3 c5.2,22.4 16,42.4 29.6,55 c0.8,0.2 5.6,1.3 10.4,4.1 c6.9,4.1 10.4,9.7 10.2,16.4 c-0.1,4.7 -1.6,8.4 -4.5,10.9 c-4.9,4.2 -11.9,3.5 -12.5,3.4 l-24.2,0.1 C271.2382396697998,397.9000053405762 270.6382396697998,397.9000053405762 269.7382396697998,397.9000053405762 z" style="fill: rgb(81, 39, 85);" id="svg_1709"/>
	</g>
	<g id="svg_1710">
		<path class="st11" d="M485.4382396697998,333.4000053405762 c-0.5,-4.7 -0.8,-9.8 -2.3,-14.3 c-1.6,-4.9 -4.8,-8.5 -8.5,-12 c-3.3,-3.1 -6.8,-6.2 -10.6,-8.7 c-2.5,-1.6 -5.1,-2.9 -7.8,-4 c-0.6000000000000001,-2 -1.9,-3.7 -3.8,-4.5 c-8.8,-3.7 -17.9,-6 -27.5,-6.1 c-4.7,0 -9.7,0.30000000000000004 -14.2,2 c-4.7,1.8 -8.6,4.5 -12.5,7.7 c-6.6,5.4 -13.4,11.2 -19.2,17.5 c-3.6,3.9 -6.2,8.3 -7.3,13.5 c-1.1,4.7 -1.5,9.6 -1.9,14.3 c-1.2,16.9 -0.2,37.2 14,48.9 c7.4,6.1 16.9,8.3 25.9,11.2 c0.9,0.30000000000000004 1.7000000000000002,0.6000000000000001 2.6,0.9 c0,0 0.1,0 0.1,0 c0.4,0.2 0.8,0.4 1.2,0.6000000000000001 c2.9,1.6 5.6,2.6 8.8,3 c4.3,0.5 8.8,0.4 13.2,0.5 c4.8,0.1 9.9,0.1 14.5,-1.5 c4.8,-1.6 8.8,-4.3 12.6,-7.5 c6.6,-5.6 12.2,-13.2 16.5,-20.7 c4.8,-8.5 6.7,-17.7 6.8,-27.5 C486.13823966979976,342.30000534057615 485.9382396697998,337.80000534057615 485.4382396697998,333.4000053405762 z" style="fill: rgb(118, 115, 128);" id="svg_1711"/>
	</g>
	<g id="svg_1712">
		<defs transform="translate(-29.661760330200195,-38.59999465942383) ">
			<path id="SVGID_599_" d="M461.9,325.9c0,0-17.5,5.6-24.5,10.1c0,0-18.6,51.6,1.1,84.3c0,0,49.3-58.9,49.6-86.8&#10;&#9;&#9;&#9;&#9;C488.1,333.5,478.3,327,461.9,325.9z"/>
		</defs>
		<clipPath id="SVGID_600_" transform="translate(-29.661760330200195,-38.59999465942383) ">
			<use style="overflow:visible;" xlink:href="#SVGID_599_" id="svg_1713"/>
		</clipPath>
		<g class="st30" style="clip-path: url('#SVGID_600_');" id="svg_1714">
			<path class="st31" d="M393.7382396697998,356.7000053405762 c-2.3,0 -4.4,-1 -5.5,-2.6 c-0.8,-1.2 -1.1,-2.7 -0.7000000000000001,-4.1 c0.30000000000000004,-1.3 1.1,-2.3 2.2,-2.8 c0.6000000000000001,-0.30000000000000004 1.1,-0.4 1.6,-0.5 l16,-3.1 c4.7,-0.9 9.5,-1.9 14.5,-2.2 c9.7,-0.6000000000000001 19.5,1.3 28.2,5.5 l0.4,0.2 c1.1,0.6000000000000001 2.2,1.1 3.3,1.2 c0.9,0.1 2,0 2.5,-0.7000000000000001 c0.6000000000000001,-0.7000000000000001 0.30000000000000004,-2 -0.2,-2.8 c-0.8,-1.1 -2.2,-1.8 -3.4,-2.4 c-9.9,-4.5 -21.5,-3.5 -31.7,-2.6 c-6.7,0.6000000000000001 -13.6,1.2 -20.1,3.1 c-0.30000000000000004,0.1 -0.6000000000000001,0.2 -0.9,0.30000000000000004 c-2.6,0.8 -5.6,1.7000000000000002 -8.6,0.9 c-2.2,-0.6000000000000001 -4.1,-2.4 -4.9,-4.6 c-0.6000000000000001,-1.7000000000000002 -0.30000000000000004,-3.5 0.7000000000000001,-4.8 c1.6,-2.1 4.5,-2.4 6.1,-2.5 c10.3,-0.9 20.7,-1.5 31.1,-1.8 c-7.1,-3.6 -14.4,-7.2 -22.1,-7.5 c-2.4,-0.1 -4.8,0.1 -7.3,0.30000000000000004 c-1.9,0.2 -3.9,0.30000000000000004 -5.9,0.4 c-0.8,0 -1.8,0 -2.7,-0.5 c-1.2,-0.7000000000000001 -1.8,-1.8 -1.8,-3.2 c0.1,-1.9 1.4,-3.9 3.1,-4.7 c1.7000000000000002,-0.8 3.4,-1 5.1,-0.8 c-0.30000000000000004,-0.4 -0.6000000000000001,-0.9 -0.8,-1.4 c-0.30000000000000004,-0.5 -0.2,-1.1 0.1,-1.6 c0.30000000000000004,-0.5 0.8,-0.8 1.4,-0.8 c1.2,0 2.4,0 3.6,0 c0.2,-0.2 0.4,-0.4 0.6000000000000001,-0.5 c0.1,-0.1 0.2,-0.2 0.4,-0.30000000000000004 c0,0 0,-0.1 -0.1,-0.1 c-0.30000000000000004,-0.6000000000000001 -0.5,-1.8 0.8,-3.2 c1.2,-1.3 2.7,-2.4 4.2,-3.2 c-0.2,-0.30000000000000004 -0.4,-0.6000000000000001 -0.5,-1 c-0.30000000000000004,-1 -0.2,-2.1 0.4,-2.9 c0.7000000000000001,-1.2 1.9,-1.8 2.9,-2.3 c15,-7 33.3,-6.6 48.1,0.9 c0,-0.1 0,-0.1 0,-0.2 c0,-0.8 -0.4,-1.8 -1,-2.4 c-1.3,-1.2 -3.3,-1.6 -5.4,-2 c-14.2,-2.4 -26.3,-2.7 -36.9,-0.7000000000000001 c-0.9,0.2 -1.8,-0.4 -2,-1.4 c-0.2,-0.9 0.4,-1.8 1.4,-2 c11,-2 23.5,-1.8 38.1,0.7000000000000001 c2.5,0.4 5.2,1 7.2,2.9 c1.3,1.2 2.1,3.1 2.1,4.9 c0,1.5 -0.6000000000000001,2.8 -1.6,3.7 c-0.5,0.5 -1.3,0.6000000000000001 -1.9,0.2 c-14.1,-7.7 -31.9,-8.3 -46.5,-1.6 c-0.5,0.2 -1.1,0.5 -1.3,0.8 c0,0 0,0 0,0 c2.2,-0.30000000000000004 4.3,-1.1 6.6,-1.9 c0.9,-0.30000000000000004 1.8,-0.6000000000000001 2.7,-0.9 c14,-4.6 30.3,-2.3 42.4,6.2 c0.6000000000000001,0.4 2.2,1.5 2.2,3.4 c0,0.8 -0.4,1.6 -1,2.3 c-0.8,0.7000000000000001 -1.8,1.1 -2.9,1 c-0.4,0 -0.9,-0.1 -1.3,-0.2 c0.30000000000000004,0.1 0.5,0.30000000000000004 0.8,0.5 c1.1,0.6000000000000001 2.4,1.4 3.2,2.8 c1.1,1.8 0.8,4 -0.6000000000000001,5.3 c-1.2,1.1 -2.7,1 -4,0.7000000000000001 c0.7000000000000001,0.8 1.7000000000000002,2.3 1.8,3.9 c0,1 -0.30000000000000004,1.9 -1,2.6 c-0.9,1 -3.1,2.2 -7.1,-0.7000000000000001 c-10.5,-7.5 -23.9,-9.6 -36.4,-10.8 c-2.7,0.4 -5.4,0.8 -8,1.4 c2,0.5 4.1,0.9 6.1,1.4 c1.3,0 2.7,0 4,0 l0.4,0 c9.6,-0.1 20.5,0.30000000000000004 28.5,6.7 c1.8,1.5 3,3.1 3.4,4.7 c0.6000000000000001,0 1.1,0.1 1.7000000000000002,0.2 c2.5,0.30000000000000004 6,1 8.4,3.6 c0.8,0.8 1.1,1.7000000000000002 1,2.6 c-0.1,1.5 -1.4,2.6 -3.2,2.9 c-0.6000000000000001,0.1 -1.1,0.1 -1.6,0.1 c0.7000000000000001,0.30000000000000004 1.4,0.6000000000000001 2.1,0.9 c1.6,0.7000000000000001 3.5,1.8 4.8,3.5 c1.5,2.1 1.6,4.9 0.2,6.8 c-1.2,1.6 -3.4,2.4 -5.7,2 c-1.6,-0.2 -3,-0.9 -4.3,-1.5 l-0.4,-0.2 c-8.2,-4 -17.4,-5.8 -26.5,-5.2 c-4.7,0.30000000000000004 -9.4,1.2 -14,2.1 l-16,3.1 c-0.30000000000000004,0.1 -0.6000000000000001,0.1 -0.8,0.2 c-0.2,0.1 -0.4,0.4 -0.4,0.6000000000000001 c-0.1,0.4 0,1 0.2,1.3 c0.5,0.8 1.7000000000000002,1.2 3,1.1 c1.3,-0.1 2.6,-0.6000000000000001 4,-1.1 l0.4,-0.2 c12,-4.5 25,-6 37.7,-4.3 c0.9,0.1 1.6,1 1.5,1.9 c-0.1,0.9 -1,1.6 -1.9,1.5 c-12.1,-1.6 -24.6,-0.2 -36.1,4.1 l-0.4,0.2 c-1.6,0.6000000000000001 -3.2,1.2 -5,1.3 C394.0382396697998,356.60000534057616 393.9382396697998,356.7000053405762 393.7382396697998,356.7000053405762 zM431.4382396697998,333.80000534057615 c-12.6,0.2 -25.4,0.8 -38,1.9 c-1.4,0.1 -3,0.30000000000000004 -3.7,1.2 c-0.30000000000000004,0.4 -0.4,1 -0.2,1.6 c0.4,1.1 1.4,2.1 2.5,2.4 c2.1,0.5 4.4,-0.2 6.8,-0.9 c0.30000000000000004,-0.1 0.6000000000000001,-0.2 0.9,-0.30000000000000004 c6.8,-2 13.9,-2.6 20.8,-3.2 c7.5,-0.6000000000000001 16.4,-1.4 24.9,0.30000000000000004 c-0.4,-0.2 -0.8,-0.4 -1.2,-0.6000000000000001 c-1.4,-0.7000000000000001 -2.7,-1.3 -4,-1.7000000000000002 c-1.9,-0.6000000000000001 -3.9,-0.7000000000000001 -6.2,-0.7000000000000001 c-0.7000000000000001,0.1 -1.5,0.2 -2.3,0.1 C431.7382396697998,333.9000053405762 431.5382396697998,333.9000053405762 431.4382396697998,333.80000534057615 zM445.2382396697998,332.9000053405762 c0.2,0.1 0.30000000000000004,0.2 0.5,0.2 c2.5,1.2 4.9,2.3 7.3,2 c0,0 0,0 0,0 c-1.2,-1.2 -3.2,-2 -6.1,-2.3 c-0.5,-0.1 -1,-0.1 -1.5,-0.1 C445.3382396697998,332.80000534057615 445.3382396697998,332.9000053405762 445.2382396697998,332.9000053405762 zM417.8382396697998,323.7000053405762 c3,1.3 5.9,2.8 8.7,4.2 c1.2,0.6000000000000001 2.3,1.2 3.5,1.7000000000000002 c0.7000000000000001,0.30000000000000004 1.2,0.6000000000000001 1.8,0.7000000000000001 c0.2,0 0.30000000000000004,0 0.5,0 c0.5,0 1,0 1.6,0 c0.30000000000000004,-0.1 0.7000000000000001,-0.1 1,-0.2 l0.1,0 C429.5382396697998,327.5000053405762 423.7382396697998,325.5000053405762 417.8382396697998,323.7000053405762 zM422.2382396697998,321.5000053405762 c6.4,2 12.6,4.5 18.5,7.8 c0.4,0 0.8,0 1.2,-0.1 c-0.5,-0.8 -1.3,-1.5 -1.8,-2 C435.1382396697998,323.30000534057615 428.7382396697998,322.0000053405762 422.2382396697998,321.5000053405762 zM427.5382396697998,314.10000534057616 c7.8,1.7000000000000002 15.5,4.4 22.1,9.1 c1.7000000000000002,1.2 2.5,1.2 2.7,1.1 c0,0 0.1,-0.1 0.1,-0.2 c0,-0.5 -0.5,-1.4 -1.3,-2.1 c-3.4,-3.2 -7.6,-5.6 -12.1,-6.7 c-3.6,-0.9 -7.3,-1.1 -10.5,-1.1 C428.1382396697998,314.10000534057616 427.8382396697998,314.10000534057616 427.5382396697998,314.10000534057616 zM391.9382396697998,317.80000534057615 c-1,0 -1.9,0.2 -2.7,0.5 c-0.4,0.2 -0.8,0.6000000000000001 -1,1.1 c-0.2,0.5 -0.2,0.8 -0.2,0.8 c0.2,0.1 0.7000000000000001,0.1 1,0.1 c1.9,0 3.8,-0.2 5.6,-0.30000000000000004 c1.7000000000000002,-0.1 3.4,-0.30000000000000004 5.1,-0.30000000000000004 c-0.7000000000000001,-0.30000000000000004 -1.3,-0.6000000000000001 -1.9,-0.9 c-0.5,-0.1 -0.9,-0.2 -1.4,-0.30000000000000004 C394.7382396697998,318.10000534057616 393.2382396697998,317.80000534057615 391.9382396697998,317.80000534057615 zM427.1382396697998,307.30000534057615 c9.2,1.3 18.2,4.2 26.3,8.7 c1.9,1.1 2.4,0.7000000000000001 2.4,0.7000000000000001 c0.1,-0.1 0.1,-0.6000000000000001 -0.1,-1 c-0.4,-0.6000000000000001 -1.2,-1.1 -2,-1.6 C446.0382396697998,309.9000053405762 436.9382396697998,307.60000534057616 427.1382396697998,307.30000534057615 zM404.6382396697998,311.10000534057616 c0.6000000000000001,0.1 1.1,0.1 1.7000000000000002,0.2 c1.6,0.1 3.2,0.30000000000000004 4.9,0.5 c5,-0.7000000000000001 10,-1 15,-1 C419.0382396697998,309.7000053405762 411.7382396697998,309.80000534057615 404.6382396697998,311.10000534057616 zM425.2382396697998,303.9000053405762 c9.8,0 19,1.9 27,5.7 c-11,-6.6 -25.1,-8.7 -39.7,-5.9 c-2.8,0.5 -6.1,1.4 -8.8,3.1 C410.9382396697998,304.9000053405762 418.2382396697998,303.9000053405762 425.2382396697998,303.9000053405762 zM429.3382396697998,299.30000534057615 c9.1,0.6000000000000001 17.5,3.2 24.8,7.6 l0.1,0.1 c0.7000000000000001,0.4 1.3,0.8 1.8,0.8 c0.1,0 0.1,0 0.2,0 c-0.1,-0.1 -0.30000000000000004,-0.30000000000000004 -0.6000000000000001,-0.5 C447.9382396697998,301.9000053405762 438.6382396697998,299.2000053405762 429.3382396697998,299.30000534057615 z" style="fill: rgb(165, 162, 179);" id="svg_1715"/>
		</g>
		<g class="st30" style="clip-path: url('#SVGID_600_');" id="svg_1716">
			<path class="st31" d="M405.9382396697998,381.5000053405762 c-0.7000000000000001,0 -1.4,-0.5 -1.6,-1.2 c-1.8,-6.2 -3.2,-12.6 -4.4,-18.9 c-0.5,-2.7 -0.7000000000000001,-5.8 1.4,-8 c0.7000000000000001,-0.7000000000000001 1.6,-1.1 2.5,-1 c0.30000000000000004,0 1.1,0.2 1.7000000000000002,0.9 c0,-0.2 0,-0.4 0,-0.6000000000000001 c0,-0.6000000000000001 0.30000000000000004,-1.3 0.8,-1.6 c0.8,-0.5 1.7000000000000002,-0.5 2.6,-0.2 c0.9,0.4 1.6,1.1 2.1,2 c0.1,-0.30000000000000004 0.2,-0.5 0.30000000000000004,-0.8 c0.7000000000000001,-1.5 2.5,-2.6 4.3,-1.9 c1.8,0.7000000000000001 2.2,2.7 2.4,3.3 c0.7000000000000001,3.1 0.7000000000000001,6.3 0.7000000000000001,9.4 c0,3.1 0.1,6.1 0.7000000000000001,8.9 c0.1,-0.5 0.1,-1 0.1,-1.6 l0,-0.1 c-0.2,-5.6 0.30000000000000004,-11.3 1.5,-16.8 c0.5,-2.5 1.7000000000000002,-4 3.4,-4.3 c0.7000000000000001,-0.1 1.4,0.2 1.8,0.9 c1.9,3.5 2.4,7.5 2.8,11.4 c0.5,4.5 1,8.8 3.8,11.8 c0.6000000000000001,0.7000000000000001 0.6000000000000001,1.8 -0.1,2.4 c-0.7000000000000001,0.6000000000000001 -1.8,0.6000000000000001 -2.4,-0.1 c-3.5,-3.8 -4.1,-8.9 -4.6,-13.7 c-0.30000000000000004,-2.7 -0.6000000000000001,-5.3 -1.4,-7.6 c-1.1,5.2 -1.6,10.6 -1.4,15.9 l0,0.1 c0,1.1 0.1,2.4 -0.5,3.7 c-0.8,1.6 -2.8,2.8 -4.7,2 c-0.30000000000000004,-0.1 -0.5,-0.30000000000000004 -0.7000000000000001,-0.6000000000000001 c0,0.2 0,0.5 0,0.7000000000000001 c-0.1,1 -0.7000000000000001,2.3 -1.7000000000000002,2.8 c-0.7000000000000001,0.4 -1.5,0.4 -2.2,-0.1 c-0.6000000000000001,-0.4 -1,-1 -1.1,-1.4 c-0.30000000000000004,1.6 -1.3,2.6 -2.6,2.7 c-0.5,0 -1,0 -1.4,-0.30000000000000004 c0.1,0.8 -0.4,1.6 -1.2,1.8 C406.2382396697998,381.5000053405762 406.1382396697998,381.5000053405762 405.9382396697998,381.5000053405762 zM414.3382396697998,353.5000053405762 C414.3382396697998,353.5000053405762 414.2382396697998,353.5000053405762 414.3382396697998,353.5000053405762 c-0.30000000000000004,0.5 -0.2,1.3 -0.2,1.9 c0.1,3.2 0.4,6.9 1.1,10.4 c0,-1 0,-1.9 0,-2.8 c0,-3 -0.1,-5.9 -0.6000000000000001,-8.7 C414.4382396697998,353.80000534057615 414.3382396697998,353.60000534057616 414.3382396697998,353.5000053405762 zM403.1382396697998,356.80000534057615 c-0.30000000000000004,1.1 -0.1,2.5 0.1,3.9 c0.1,0.4 0.2,0.8 0.2,1.3 C403.3382396697998,360.30000534057615 403.2382396697998,358.60000534057616 403.1382396697998,356.80000534057615 z" style="fill: rgb(165, 162, 179);" id="svg_1717"/>
		</g>
		<g class="st30" style="clip-path: url('#SVGID_600_');" id="svg_1718">
			<path class="st32" d="M400.2382396697998,338.0000053405762 c-3.1,0 -6.2,-0.2 -9.3,-0.6000000000000001 c-1.4,-0.2 -2.4,-1.5 -2.2,-2.9 c0.2,-1.4 1.5,-2.4 2.9,-2.2 c11.4,1.6 22.6,-0.4 34.5,-2.6 c8.1,-1.5 16.5,-3 24.9,-3.3 c0,0 0,0 0.1,0 c1.4,0 2.5,1.1 2.5,2.5 c0,1.4 -1.1,2.6 -2.5,2.6 c-8,0.2 -16.2,1.7000000000000002 -24.1,3.2 C418.3382396697998,336.4000053405762 409.3382396697998,338.0000053405762 400.2382396697998,338.0000053405762 z" style="fill: rgb(180, 177, 194);" id="svg_1719"/>
		</g>
		<g class="st30" style="clip-path: url('#SVGID_600_');" id="svg_1720">
			<path class="st33" d="M444.1382396697998,355.7000053405762 c-0.2,0 -0.4,0 -0.6000000000000001,-0.1 c-10.7,-2.6 -19.7,-9.6 -26.9,-15.3 c-5.5,-4.3 -11.8,-9.2 -16.3,-15.6 c-5.2,-7.3 -7.1,-15.6 -5.4,-22.7 c0.30000000000000004,-1.4 1.7000000000000002,-2.2 3.1,-1.9 c1.4,0.30000000000000004 2.2,1.7000000000000002 1.9,3.1 c-1.4,5.8 0.30000000000000004,12.5 4.6,18.6 c4.1,5.8 10.1,10.5 15.3,14.6 c6.9,5.4 15.4,12.1 25,14.4 c1.4,0.30000000000000004 2.2,1.7000000000000002 1.9,3.1 C446.3382396697998,354.9000053405762 445.3382396697998,355.7000053405762 444.1382396697998,355.7000053405762 z" style="fill: rgb(182, 179, 196);" id="svg_1721"/>
		</g>
		<g class="st30" style="clip-path: url('#SVGID_600_');" id="svg_1722">
			<path class="st27" d="M406.6382396697998,392.5000053405762 c-0.1,0 -0.1,0 -0.2,0 c-1.2,-0.1 -2,-1.2 -1.9,-2.3 c1.2,-12 2.5,-24.4 5.8,-36.4 c1,-3.7 2.3,-7.4 3.5,-11 c0.5,-1.5 1,-2.9 1.5,-4.4 c2.5,-7.7 4.7,-15.7 6.8,-23.4 l9.5,-34.6 c0.30000000000000004,-1.1 1.5,-1.8 2.6,-1.5 c1.1,0.30000000000000004 1.8,1.5 1.5,2.6 l-9.5,34.6 c-2.1,7.8 -4.4,15.8 -6.9,23.6 c-0.5,1.5 -1,3 -1.5,4.4 c-1.2,3.5 -2.4,7.2 -3.4,10.8 c-3.2,11.6 -4.5,23.8 -5.7,35.7 C408.6382396697998,391.7000053405762 407.7382396697998,392.5000053405762 406.6382396697998,392.5000053405762 z" style="fill: rgb(189, 186, 205);" id="svg_1723"/>
		</g>
		<g class="st30" style="clip-path: url('#SVGID_600_');" id="svg_1724">
			<path class="st27" d="M416.8382396697998,383.9000053405762 c-0.1,0 -0.2,0 -0.30000000000000004,0 c-1.2,-0.1 -2,-1.2 -1.9,-2.4 c4.2,-35 12.4,-69.5 24.6,-102.5 c0.4,-1.1 1.6,-1.7000000000000002 2.7,-1.3 c1.1,0.4 1.7000000000000002,1.6 1.3,2.7 c-12,32.8 -20.2,66.9 -24.3,101.6 C418.8382396697998,383.10000534057616 417.9382396697998,383.9000053405762 416.8382396697998,383.9000053405762 z" style="fill: rgb(189, 186, 205);" id="svg_1725"/>
		</g>
	</g>
	<g id="svg_1726">
		<path class="st31" d="M397.9382396697998,373.60000534057616 c-0.7000000000000001,0 -1.4,-0.5 -1.6,-1.2 c-1.9,-5.9 -2.8,-12 -3.5,-18 c-0.8,-5.6 -1.5,-11.4 -1.3,-17.3 c0.4,-10.2 3.9,-20.8 10.3,-31.5 c2.1,-3.6 5.2,-8.1 9.4,-11.2 c0.8,-0.6000000000000001 1.8,-0.4 2.4,0.4 c0.6000000000000001,0.8 0.4,1.8 -0.4,2.4 c-3.8,2.8 -6.6,7 -8.5,10.3 c-6.1,10.2 -9.4,20.2 -9.8,29.8 c-0.2,5.5 0.5,11.2 1.3,16.7 c0.8,5.8 1.6,11.8 3.4,17.4 c0.30000000000000004,0.9 -0.2,1.9 -1.1,2.1 C398.2382396697998,373.60000534057616 398.0382396697998,373.60000534057616 397.9382396697998,373.60000534057616 z" style="fill: rgb(165, 162, 179);" id="svg_1727"/>
	</g>
	<g id="svg_1728">
		<path class="st31" d="M409.0382396697998,388.2000053405762 c-0.6000000000000001,0 -1.2,-0.30000000000000004 -1.5,-0.9 c-7.6,-14.6 -11.2,-31 -10.5,-47.4 c0.2,-5 0.8,-10.3 1.9,-16.8 c1.4,-8.2 3.5,-17.6 8.1,-25.9 c0.5,-0.8 1.5,-1.1 2.3,-0.6000000000000001 c0.8,0.5 1.1,1.5 0.6000000000000001,2.3 c-4.4,7.8 -6.4,16.9 -7.8,24.8 c-1.1,6.4 -1.7000000000000002,11.6 -1.9,16.4 c-0.7000000000000001,15.8 2.8,31.6 10.2,45.7 c0.4,0.8 0.1,1.9 -0.7000000000000001,2.3 C409.5382396697998,388.10000534057616 409.2382396697998,388.2000053405762 409.0382396697998,388.2000053405762 z" style="fill: rgb(165, 162, 179);" id="svg_1729"/>
	</g>
	<g id="svg_1730">
		<path class="st31" d="M398.4382396697998,368.5000053405762 c-0.1,0 -0.2,0 -0.4,0 c-0.9,-0.2 -1.5,-1.1 -1.3,-2 c0.8,-3.5 0.2,-7.3 -0.4,-10.9 l-2.9,-18.1 c-0.5,-3 -1,-6.2 -1.3,-9.3 c-0.6000000000000001,-5.7 -0.9,-13 2.9,-18.8 c0.8,-1.1 1.7000000000000002,-1.2 2.2,-1.2 c0.9,0.1 1.6,1 1.5,1.9 c-0.1,0.6000000000000001 -0.5,1.1 -1,1.4 c-3.1,4.8 -2.8,11.2 -2.3,16.3 c0.30000000000000004,3 0.8,6.1 1.3,9.1 l2.9,18.1 c0.6000000000000001,3.8 1.3,8 0.30000000000000004,12.1 C399.9382396697998,368.0000053405762 399.1382396697998,368.5000053405762 398.4382396697998,368.5000053405762 z" style="fill: rgb(165, 162, 179);" id="svg_1731"/>
	</g>
	<g id="svg_1732">
		<path class="st31" d="M402.6382396697998,399.0000053405762 c-0.1,0 -0.2,0 -0.4,0 c-0.9,-0.2 -1.5,-1.1 -1.3,-2 c0.9,-4.4 3.1,-8.4 5.3,-12.1 c4.8,-8 10.5,-15.6 16,-22.9 c5.5,-7.3 11.1,-14.9 15.9,-22.8 c4.9,-8.1 8.9,-16.8 12.9,-25.2 l5.1,-10.9 c1,-2.2 1.9,-4.2 1.6,-6 c-0.1,-0.9 -0.8,-1.8 -1.6,-2.2 c-0.5,-0.30000000000000004 -0.9,-0.30000000000000004 -1.3,-0.2 c-0.9,0.4 -1.9,0 -2.2,-0.9 c-0.4,-0.9 0,-1.9 0.9,-2.2 c1.4,-0.6000000000000001 2.9,-0.5 4.3,0.30000000000000004 c1.7000000000000002,1 3,2.7 3.3,4.6 c0.5,3 -0.9,5.9 -1.9,8 l-5.1,10.9 c-4,8.5 -8.1,17.3 -13,25.5 c-4.8,8.1 -10.5,15.7 -16.1,23.1 c-5.4,7.3 -11,14.8 -15.8,22.6 c-2.1,3.4 -4.1,7.1 -4.9,11 C404.1382396697998,398.5000053405762 403.4382396697998,399.0000053405762 402.6382396697998,399.0000053405762 z" style="fill: rgb(165, 162, 179);" id="svg_1733"/>
	</g>
	<g id="svg_1734">
		<path class="st31" d="M403.9382396697998,399.10000534057616 c-0.8,0 -1.5,-0.30000000000000004 -2.2,-0.8 c-0.7000000000000001,-0.6000000000000001 -0.8,-1.7000000000000002 -0.2,-2.4 c0.6000000000000001,-0.7000000000000001 1.7000000000000002,-0.8 2.4,-0.2 c0.2,0.1 1,-0.2 2,-1.3 c12.3,-13 20.5,-29.5 28.4,-45.5 c5.9,-11.9 12,-24.3 19.8,-35.2 c0.30000000000000004,-0.4 0.6000000000000001,-0.8 0.9,-1.2 c1.7000000000000002,-2.3 3.2,-4.5 4.4,-6.9 c0.9,-1.8 1.4,-3.8 1.7000000000000002,-5.8 c0.2,-1.4 0.1,-2.4 -0.30000000000000004,-3.1 c-0.30000000000000004,-0.5 -1,-0.9 -1.3,-0.7000000000000001 c-0.8,0.4 -1.9,0.1 -2.3,-0.8 c-0.4,-0.8 -0.1,-1.9 0.8,-2.3 c2.2,-1.1 4.7,0.30000000000000004 5.8,2.2 c0.9,1.7000000000000002 0.8,3.7 0.6000000000000001,5.1 c-0.30000000000000004,2.4 -1,4.6 -2,6.8 c-1.3,2.7 -3,5.2 -4.7,7.5 c-0.30000000000000004,0.4 -0.6000000000000001,0.8 -0.9,1.2 c-7.7,10.8 -13.7,23 -19.5,34.8 c-8,16.2 -16.3,32.9 -28.9,46.3 C406.9382396697998,398.30000534057615 405.3382396697998,399.10000534057616 403.9382396697998,399.10000534057616 z" style="fill: rgb(165, 162, 179);" id="svg_1735"/>
	</g>
	<g id="svg_1736">
		<path class="st31" d="M424.9382396697998,373.7000053405762 c-0.6000000000000001,0 -1.2,-0.30000000000000004 -1.5,-0.9 c-0.5,-0.8 -0.2,-1.9 0.6000000000000001,-2.3 c4.1,-2.4 7,-6.5 9.8,-10.9 c2.3,-3.5 5.2,-8.2 7.8,-13.2 c2.8,-5.4 5.1,-11.2 7.4,-16.9 c3.2,-7.8 6.4,-15.9 9.1,-24 c0.6000000000000001,-1.9 1.2,-3.7 0.8,-5.3 c-0.5,-2.1 -2.5,-3.7 -4.6,-5.3 c-0.8,-0.6000000000000001 -0.9,-1.6 -0.4,-2.4 c0.6000000000000001,-0.8 1.6,-0.9 2.4,-0.4 c2,1.5 5.1,3.8 5.9,7.3 c0.6000000000000001,2.4 -0.1,4.8 -0.9,7.1 c-2.7,8.2 -6,16.3 -9.2,24.2 c-2.3,5.7 -4.7,11.5 -7.5,17.1 c-2.6,5.1 -5.6,9.9 -7.9,13.5 c-2.9,4.6 -6.2,9.3 -11,12 C425.4382396697998,373.60000534057616 425.2382396697998,373.7000053405762 424.9382396697998,373.7000053405762 z" style="fill: rgb(165, 162, 179);" id="svg_1737"/>
	</g>
	<g id="svg_1738">
		<path class="st31" d="M438.7382396697998,364.2000053405762 c-0.4,0 -0.9,-0.2 -1.2,-0.5 c-0.7000000000000001,-0.7000000000000001 -0.7000000000000001,-1.7000000000000002 0,-2.4 c1.9,-1.9 3.9,-3.9 5.4,-6.2 c1.1,-1.6 1.9,-3.4 2.7,-5.3 l0.30000000000000004,-0.7000000000000001 c1.2,-2.7 2.5,-5.4 3.8,-8.1 c2.9,-6 5.8,-12.2 7.9,-18.5 c2.3,-7.2 4.4,-17.8 0.8,-27.6 c-0.30000000000000004,-0.9 0.1,-1.9 1,-2.2 c0.9,-0.30000000000000004 1.9,0.1 2.2,1 c3.1,8.4 2.8,18.7 -0.8,29.8 c-2.1,6.6 -5.1,12.9 -8.1,18.9 c-1.3,2.6 -2.5,5.3 -3.7,8 l-0.30000000000000004,0.6000000000000001 c-0.9,1.9 -1.8,3.9 -3,5.8 c-1.7000000000000002,2.6 -3.8,4.7 -5.8,6.7 C439.6382396697998,364.0000053405762 439.2382396697998,364.2000053405762 438.7382396697998,364.2000053405762 z" style="fill: rgb(165, 162, 179);" id="svg_1739"/>
	</g>
	<g id="svg_1740">
		<path class="st31" d="M449.1382396697998,355.80000534057615 c-0.4,0 -0.9,-0.2 -1.2,-0.5 c-0.7000000000000001,-0.7000000000000001 -0.7000000000000001,-1.7000000000000002 0,-2.4 l2.9,-2.9 c1.8,-1.8 3.6,-3.6 5.1,-5.6 c1.8,-2.4 3.4,-5.3 4.8,-8.8 c2.9,-7.2 4.5,-15.1 4.6,-22.9 c0,-3.2 -0.2,-7.7 -2.4,-11 c-0.6000000000000001,-0.2 -1,-0.7000000000000001 -1.2,-1.3 c-0.1,-0.8 0.30000000000000004,-1.6 1,-2 c0.8,-0.4 1.9,-0.1 2.4,0.7000000000000001 c3.2,4.2 3.5,9.8 3.5,13.7 c-0.1,8.2 -1.8,16.5 -4.9,24.1 c-1.6,3.8 -3.3,7 -5.3,9.6 c-1.6,2.2 -3.5,4.1 -5.4,5.9 l-2.9,2.9 C449.9382396697998,355.60000534057616 449.5382396697998,355.80000534057615 449.1382396697998,355.80000534057615 z" style="fill: rgb(165, 162, 179);" id="svg_1741"/>
	</g>
	<g id="svg_1742">
		<path class="st31" d="M461.7382396697998,342.30000534057615 c-0.4,0 -0.7000000000000001,-0.1 -1.1,-0.4 c-0.7000000000000001,-0.6000000000000001 -0.9,-1.7000000000000002 -0.30000000000000004,-2.4 c6.5,-8.2 9.1,-19.3 7,-29.6 c-0.7000000000000001,-3.2 -1.7000000000000002,-5.4 -3.1,-6.9 c-0.7000000000000001,-0.7000000000000001 -0.6000000000000001,-1.7000000000000002 0,-2.4 c0.7000000000000001,-0.7000000000000001 1.7000000000000002,-0.6000000000000001 2.4,0 c2.5,2.6 3.5,6.1 4,8.6 c2.4,11.3 -0.5,23.4 -7.6,32.4 C462.7382396697998,342.10000534057616 462.2382396697998,342.30000534057615 461.7382396697998,342.30000534057615 z" style="fill: rgb(165, 162, 179);" id="svg_1743"/>
	</g>
	<g id="svg_1744">
		<path class="st31" d="M467.7382396697998,335.9000053405762 c-0.30000000000000004,0 -0.7000000000000001,-0.1 -1,-0.30000000000000004 c-0.8,-0.5 -1,-1.6 -0.4,-2.4 c3.9,-5.5 4.2,-12.4 3.8,-17.3 c-0.5,-6.1 -2.4,-10.6 -5.5,-13.3 c-0.7000000000000001,-0.6000000000000001 -0.8,-1.7000000000000002 -0.2,-2.4 c0.6000000000000001,-0.7000000000000001 1.7000000000000002,-0.8 2.4,-0.2 c3.9,3.3 6.1,8.6 6.7,15.6 c0.4,5.4 0,13.2 -4.4,19.5 C468.7382396697998,335.7000053405762 468.2382396697998,335.9000053405762 467.7382396697998,335.9000053405762 z" style="fill: rgb(165, 162, 179);" id="svg_1745"/>
	</g>
	<g id="svg_1746">
		<path class="st31" d="M417.8382396697998,383.4000053405762 c-0.6000000000000001,0 -1.1,-0.30000000000000004 -1.5,-0.8 c-0.5,-0.8 -0.2,-1.8 0.6000000000000001,-2.3 c12.2,-7.5 23.9,-16.1 34.5,-25.7 c4,-3.6 8.2,-7.6 11.3,-12.3 c2.2,-3.3 4,-6.9 5.6,-10.5 c1.1,-2.3 2.3,-4.7 2.9,-7.2 c1.4,-5.9 -0.30000000000000004,-12.5 -4.4,-16.9 c-0.6000000000000001,-0.7000000000000001 -0.6000000000000001,-1.8 0.1,-2.4 c0.7000000000000001,-0.6000000000000001 1.8,-0.6000000000000001 2.4,0.1 c4.9,5.2 6.9,13.1 5.2,20 c-0.7000000000000001,2.8 -1.9,5.4 -3.1,7.9 c-1.7000000000000002,3.7 -3.6,7.5 -5.9,10.9 c-3.4,5 -7.7,9.2 -11.9,12.9 c-10.8,9.7 -22.6,18.5 -35,26.1 C418.5382396697998,383.30000534057615 418.1382396697998,383.4000053405762 417.8382396697998,383.4000053405762 z" style="fill: rgb(165, 162, 179);" id="svg_1747"/>
	</g>
	<g id="svg_1748">
		<path class="st31" d="M420.8382396697998,385.2000053405762 c-0.8,0 -1.5,-0.5 -1.7000000000000002,-1.3 c-0.2,-0.9 0.4,-1.8 1.3,-2 c5,-1.1 10,-3.7 15.9,-8.3 c3.5,-2.7 7,-5.8 11.1,-9.8 c9.5,-9.3 16,-17.6 20.3,-26.1 c0.4,-0.8 1.5,-1.2 2.3,-0.7000000000000001 c0.8,0.4 1.2,1.5 0.7000000000000001,2.3 c-4.5,8.8 -11.2,17.4 -21,27 c-4.2,4.1 -7.8,7.3 -11.4,10.1 c-6.3,4.9 -11.8,7.7 -17.3,8.9 C421.1382396697998,385.2000053405762 420.9382396697998,385.2000053405762 420.8382396697998,385.2000053405762 z" style="fill: rgb(165, 162, 179);" id="svg_1749"/>
	</g>
	<g id="svg_1750">
		<path class="st31" d="M420.2382396697998,391.5000053405762 c-0.7000000000000001,0 -1.3,-0.4 -1.6,-1.1 c-0.4,-0.9 0.1,-1.9 0.9,-2.2 c1.9,-0.8 3.8,-1.7000000000000002 5.6,-2.7 c6.2,-3.6 11.3,-8.5 17.3,-14.5 c3.2,-3.2 6.8,-6.9 9.1,-11.2 c0.4,-0.8 1.5,-1.2 2.3,-0.7000000000000001 c0.8,0.4 1.2,1.5 0.7000000000000001,2.3 c-2.5,4.8 -6.3,8.6 -9.7,12 c-4.9,4.9 -10.9,11 -18,15.1 c-1.9,1.1 -3.9,2.1 -6,2.9 C420.6382396697998,391.5000053405762 420.4382396697998,391.5000053405762 420.2382396697998,391.5000053405762 z" style="fill: rgb(165, 162, 179);" id="svg_1751"/>
	</g>
	<g id="svg_1752">
		<path class="st31" d="M443.6382396697998,383.10000534057616 c-0.5,0 -0.9,-0.2 -1.3,-0.5 c-0.6000000000000001,-0.5 -0.8,-1.3 -0.6000000000000001,-2.1 c0.2,-0.9 0.9,-1.3 1.2,-1.5 c10.7,-6.9 24,-16.6 31.9,-30.3 c0.5,-0.8 1.5,-1.1 2.3,-0.6000000000000001 c0.8,0.5 1.1,1.5 0.6000000000000001,2.3 c-8.1,14 -21.4,23.9 -32.3,31 c0,0.7000000000000001 -0.4,1.3 -1.1,1.5 C444.1382396697998,383.10000534057616 443.8382396697998,383.10000534057616 443.6382396697998,383.10000534057616 z" style="fill: rgb(165, 162, 179);" id="svg_1753"/>
	</g>
	<g id="svg_1754">
		<path class="st31" d="M436.7382396697998,388.0000053405762 c-0.7000000000000001,0 -1.3,-0.4 -1.6,-1.1 c-0.30000000000000004,-0.9 0.1,-1.9 1,-2.2 c1.4,-0.5 2.7,-0.6000000000000001 4,-0.7000000000000001 c0.8,-0.1 1.6,-0.1 2.4,-0.30000000000000004 c1.5,-0.30000000000000004 3,-1.2 4.4,-2 c6.1,-3.4 12.4,-7 17.3,-12 c2,-2.1 3.8,-4.4 5.4,-6.5 c5.6,-7.6 10.7,-15.8 15.6,-23.7 l2.9,1.8 c-4.9,8 -10.1,16.3 -15.7,24 c-1.6,2.1 -3.5,4.6 -5.7,6.8 c-5.2,5.4 -11.8,9 -18.1,12.6 c-1.6,0.9 -3.3,1.9 -5.3,2.3 c-1,0.2 -1.9,0.30000000000000004 -2.9,0.4 c-1.1,0.1 -2.2,0.2 -3.1,0.5 C437.1382396697998,388.0000053405762 436.9382396697998,388.0000053405762 436.7382396697998,388.0000053405762 z" style="fill: rgb(165, 162, 179);" id="svg_1755"/>
	</g>
	<g id="svg_1756">
		<path class="st31" d="M443.7382396697998,392.4000053405762 c-0.7000000000000001,0 -1.4,-0.5 -1.6,-1.2 c-0.30000000000000004,-0.9 0.30000000000000004,-1.8 1.2,-2.1 c3.2,-0.9 6.6,-1.9 9.7,-3.3 c4.8,-2.1 9.4,-5.4 13.9,-9.7 c10.5,-10.3 16.4,-23.6 16.2,-36.4 c0,-0.9 0.7000000000000001,-1.7000000000000002 1.7000000000000002,-1.7000000000000002 c0.9,0 1.7000000000000002,0.7000000000000001 1.7000000000000002,1.7000000000000002 c0.2,13.8 -6.1,28 -17.2,38.9 c-4.7,4.6 -9.7,8.2 -14.9,10.4 c-3.3,1.5 -6.8,2.5 -10.1,3.4 C444.0382396697998,392.30000534057615 443.8382396697998,392.4000053405762 443.7382396697998,392.4000053405762 z" style="fill: rgb(165, 162, 179);" id="svg_1757"/>
	</g>
	<g id="svg_1758">
		<path class="st31" d="M447.9382396697998,396.7000053405762 c-0.9,0 -1.6,-0.7000000000000001 -1.7000000000000002,-1.5 c-0.1,-0.9 0.6000000000000001,-1.8 1.5,-1.8 c5.4,-0.5 10.7,-2.7 15,-4.9 c3.5,-1.7000000000000002 6.2,-3.3 8.4,-5.4 c1.7000000000000002,-1.7000000000000002 3.1,-3.8 4.6,-6.1 c2,-3.1 3.9,-6.2 5.3,-9.5 c2.5,-5.9 3.6,-12.7 3.2,-20.3 c-0.4,-6 -1.6,-12.6 -4.1,-20.7 c-0.30000000000000004,-0.9 0.2,-1.8 1.1,-2.1 c0.9,-0.30000000000000004 1.8,0.2 2.1,1.1 c2.5,8.3 3.9,15.2 4.2,21.5 c0.5,8.1 -0.7000000000000001,15.5 -3.4,21.9 c-1.5,3.5 -3.5,6.8 -5.6,10 c-1.6,2.5 -3.1,4.8 -5.1,6.7 c-2.8,2.8 -6.3,4.6 -9.3,6 c-4.7,2.3 -10.2,4.7 -16.2,5.2 C448.0382396697998,396.60000534057616 447.9382396697998,396.7000053405762 447.9382396697998,396.7000053405762 z" style="fill: rgb(165, 162, 179);" id="svg_1759"/>
	</g>
	<g id="svg_1760">
		<path class="st31" d="M435.2382396697998,397.10000534057616 c-1.2,0 -2.4,0 -3.6,-0.1 c-0.9,-0.1 -1.6,-0.9 -1.6,-1.8 c0.1,-0.9 0.9,-1.6 1.8,-1.6 c13.7,0.9 27.3,-3.6 37.2,-12.4 c10.2,-9 16.1,-22.3 15.8,-35.5 c-0.2,-5.7 -1.4,-11.4 -2.7,-17 c-1.2,-5.2 -2.4,-10.5 -5.2,-15 c-2.2,-3.5 -5.3,-6.3 -8.9,-8.2 c-0.8,-0.4 -1.2,-1.4 -0.7000000000000001,-2.3 c0.4,-0.8 1.4,-1.2 2.3,-0.7000000000000001 c4.2,2.1 7.8,5.4 10.3,9.4 c3.1,5 4.4,10.9 5.6,16.1 c1.3,5.7 2.6,11.6 2.8,17.6 c0.4,14.2 -5.9,28.5 -16.9,38.2 C461.6382396697998,392.30000534057615 448.6382396697998,397.10000534057616 435.2382396697998,397.10000534057616 z" style="fill: rgb(165, 162, 179);" id="svg_1761"/>
	</g>
	<g id="svg_1762">
		<path class="st31" d="M447.1382396697998,401.7000053405762 c-0.8,0 -1.4,-0.5 -1.6,-1.3 c-0.2,-0.9 0.30000000000000004,-1.8 1.2,-2.1 c6.7,-1.7000000000000002 14.2,-3.6 19.8,-8.2 c1.8,-1.5 3.6,-3.4 5.6,-6 c5.6,-7.2 9.5,-15.4 11.3,-23.7 c2,-8.8 1.6,-17.9 -1,-26 c-0.30000000000000004,-0.9 0.2,-1.8 1.1,-2.1 c0.9,-0.30000000000000004 1.8,0.2 2.1,1.1 c2.8,8.8 3.1,18.4 1,27.8 c-1.9,8.8 -6.1,17.5 -11.9,25.1 c-2.1,2.8 -4.1,4.9 -6.1,6.5 c-6.2,5 -14.1,7 -21.1,8.8 C447.4382396697998,401.7000053405762 447.3382396697998,401.7000053405762 447.1382396697998,401.7000053405762 z" style="fill: rgb(165, 162, 179);" id="svg_1763"/>
	</g>
	<g id="svg_1764">
		<path class="st31" d="M425.4382396697998,394.7000053405762 c-0.7000000000000001,0 -1.3,-0.4 -1.6,-1.1 c-0.30000000000000004,-0.9 0.1,-1.9 1,-2.2 c1.9,-0.7000000000000001 3.8,-1.1 5.7,-1.5 l0.9,-0.2 c8.7,-1.9 16.2,-4.6 22.7,-8.2 c7.4,-4.1 13.6,-9.4 18,-15.5 c1.6,-2.3 3,-4.6 4.2,-6.7 c1.6,-2.8 3.2,-5.8 4.2,-8.9 c2.2,-7 1.6,-14.9 1.1,-21.8 c-0.1,-0.9 0.6000000000000001,-1.8 1.6,-1.8 c0.9,-0.1 1.8,0.6000000000000001 1.8,1.6 c0.6000000000000001,7.3 1.2,15.5 -1.2,23.1 c-1.1,3.4 -2.8,6.6 -4.5,9.6 c-1.2,2.1 -2.6,4.6 -4.4,7 c-4.7,6.5 -11.3,12.2 -19.1,16.5 c-6.8,3.7 -14.5,6.5 -23.6,8.5 l-1,0.2 c-1.8,0.4 -3.6,0.8 -5.2,1.4 C425.8382396697998,394.7000053405762 425.6382396697998,394.7000053405762 425.4382396697998,394.7000053405762 z" style="fill: rgb(165, 162, 179);" id="svg_1765"/>
	</g>
	<g id="svg_1766">
		<path class="st31" d="M415.5382396697998,391.0000053405762 c-0.5,0 -1,-0.2 -1.3,-0.6000000000000001 c-0.6000000000000001,-0.7000000000000001 -0.5,-1.8 0.30000000000000004,-2.4 c6.6,-5.3 12.3,-9.6 18.4,-13.5 c1,-0.6000000000000001 2,-1.2 2.9,-1.8 c2.6,-1.6 5.3,-3.2 7.7,-5.1 c0.6000000000000001,-0.5 1.2,-1 1.8,-1.4 c1.1,-0.9 2.2,-1.8 3.4,-2.6 c1.1,-0.8 2.3,-1.4 3.4,-2.1 c1,-0.6000000000000001 1.9,-1.1 2.8,-1.7000000000000002 c6.7,-4.5 10.9,-12.1 14.1,-18.9 c0.4,-0.8 1.4,-1.2 2.3,-0.8 c0.8,0.4 1.2,1.4 0.8,2.3 c-3.4,7.3 -7.9,15.4 -15.3,20.3 c-1,0.7000000000000001 -2,1.2 -3,1.8 c-1.1,0.6000000000000001 -2.1,1.2 -3.1,1.9 c-1.1,0.7000000000000001 -2.1,1.6 -3.1,2.4 c-0.6000000000000001,0.5 -1.2,1 -1.9,1.5 c-2.6,2 -5.4,3.7 -8.1,5.3 c-1,0.6000000000000001 -1.9,1.2 -2.9,1.8 c-5.9,3.7 -11.5,8 -18,13.2 C416.3382396697998,390.9000053405762 415.9382396697998,391.0000053405762 415.5382396697998,391.0000053405762 z" style="fill: rgb(165, 162, 179);" id="svg_1767"/>
	</g>
	<g id="svg_1768">
		<path class="st31" d="M453.7382396697998,369.4000053405762 c-0.4,0 -0.7000000000000001,-0.1 -1,-0.30000000000000004 c-0.8,-0.6000000000000001 -0.9,-1.6 -0.4,-2.4 c7.4,-10 14,-20.7 19.5,-31.9 c1.7000000000000002,-3.4 3.5,-7.3 4.3,-11.4 c0.8,-4.2 0.2,-8.1 -1.6,-11 c-0.7000000000000001,-1.1 -0.4,-2 -0.1,-2.5 c0.4,-0.6000000000000001 1.1,-1 1.9,-0.9 c0.8,0.1 1.4,0.6000000000000001 1.6,1.3 c0.1,0.4 0.1,0.7000000000000001 0,1.1 c1.8,3.5 2.4,7.9 1.6,12.6 c-0.8,4.5 -2.8,8.7 -4.6,12.3 c-5.6,11.3 -12.3,22.2 -19.9,32.4 C454.7382396697998,369.10000534057616 454.2382396697998,369.4000053405762 453.7382396697998,369.4000053405762 z" style="fill: rgb(165, 162, 179);" id="svg_1769"/>
	</g>
	<g id="svg_1770">
		<path class="st31" d="M477.5382396697998,345.4000053405762 c-0.2,0 -0.4,0 -0.6000000000000001,-0.1 c-0.9,-0.30000000000000004 -1.3,-1.3 -1,-2.2 c3.3,-8.4 3,-18.3 -0.8,-26.5 c-0.4,-0.8 0,-1.9 0.8,-2.3 c0.8,-0.4 1.9,0 2.3,0.8 c4.2,9 4.6,19.9 0.9,29.2 C478.8382396697998,345.0000053405762 478.1382396697998,345.4000053405762 477.5382396697998,345.4000053405762 z" style="fill: rgb(165, 162, 179);" id="svg_1771"/>
	</g>
	<g id="svg_1772">
		<path class="st32" d="M460.6382396697998,362.9000053405762 c-0.7000000000000001,0 -1.3,-0.4 -1.6,-1.1 c-0.30000000000000004,-0.9 0.1,-1.9 1,-2.2 c4.2,-1.6 8.2,-3.8 11.9,-6.4 c1,-0.8 1.8,-1.4 2.4,-2.2 c1.5,-1.9 1.7000000000000002,-4.7 1.8,-7.8 l0.6000000000000001,-13.5 c0,-0.9 0.8,-1.7000000000000002 1.8,-1.6 c0.9,0 1.7000000000000002,0.8 1.6,1.8 l-0.6000000000000001,13.5 c-0.1,2.9 -0.30000000000000004,6.8 -2.5,9.7 c-0.9,1.2 -2,2.1 -3.1,2.9 c-3.9,2.8 -8.2,5.2 -12.7,6.9 C461.0382396697998,362.9000053405762 460.8382396697998,362.9000053405762 460.6382396697998,362.9000053405762 z" style="fill: rgb(180, 177, 194);" id="svg_1773"/>
	</g>
	<g id="svg_1774">
		<path class="st31" d="M431.6382396697998,403.7000053405762 c0,0 -0.1,0 -0.1,0 c-3.3,-0.30000000000000004 -6.5,-2.4 -8.5,-5.6 c-1.8,-2.9 -2.6,-6.2 -3.1,-9.1 c-0.2,-0.9 0.5,-1.8 1.4,-2 c0.9,-0.2 1.8,0.5 2,1.4 c0.4,2.5 1,5.4 2.6,7.8 c1.5,2.3 3.7,3.8 5.9,4 c0.9,0.1 1.6,0.9 1.5,1.8 C433.2382396697998,403.0000053405762 432.5382396697998,403.7000053405762 431.6382396697998,403.7000053405762 z" style="fill: rgb(165, 162, 179);" id="svg_1775"/>
	</g>
	<g id="svg_1776">
		<path class="st31" d="M422.7382396697998,401.5000053405762 c-0.5,0 -1,-0.2 -1.3,-0.6000000000000001 c-2.2,-2.7 -3.9,-6 -4.8,-9.3 c-0.2,-0.9 0.30000000000000004,-1.8 1.2,-2.1 c0.9,-0.2 1.8,0.30000000000000004 2.1,1.2 c0.8,2.9 2.2,5.7 4.2,8.1 c0.6000000000000001,0.7000000000000001 0.5,1.8 -0.30000000000000004,2.4 C423.5382396697998,401.4000053405762 423.1382396697998,401.5000053405762 422.7382396697998,401.5000053405762 z" style="fill: rgb(165, 162, 179);" id="svg_1777"/>
	</g>
	<g id="svg_1778">
		<path class="st31" d="M419.4382396697998,401.7000053405762 c-0.5,0 -1,-0.2 -1.3,-0.6000000000000001 c-2.3,-3 -3,-6.8 -3.5,-9.9 c-0.2,-0.9 0.5,-1.8 1.4,-2 c0.9,-0.2 1.8,0.5 2,1.4 c0.5,2.9 1,6.1 2.8,8.4 c0.6000000000000001,0.7000000000000001 0.5,1.8 -0.30000000000000004,2.4 C420.1382396697998,401.60000534057616 419.7382396697998,401.7000053405762 419.4382396697998,401.7000053405762 z" style="fill: rgb(165, 162, 179);" id="svg_1779"/>
	</g>
	<g id="svg_1780">
		<path class="st31" d="M415.5382396697998,401.0000053405762 c-0.4,0 -0.8,-0.1 -1.1,-0.4 c-1.6,-1.3 -2.7,-3.3 -3.5,-5.9 c-0.30000000000000004,-1 -0.5,-2 -0.7000000000000001,-2.9 c-0.2,-1 -0.4,-1.9 -0.6000000000000001,-2.8 c-0.30000000000000004,-0.9 0.30000000000000004,-1.8 1.2,-2.1 c0.9,-0.30000000000000004 1.8,0.30000000000000004 2.1,1.2 c0.30000000000000004,1 0.5,2.1 0.7000000000000001,3.1 c0.2,0.9 0.4,1.8 0.6000000000000001,2.7 c0.5,2 1.3,3.4 2.4,4.2 c0.7000000000000001,0.6000000000000001 0.8,1.7000000000000002 0.2,2.4 C416.5382396697998,400.80000534057615 416.0382396697998,401.0000053405762 415.5382396697998,401.0000053405762 z" style="fill: rgb(165, 162, 179);" id="svg_1781"/>
	</g>
	<g id="svg_1782">
		<path class="st31" d="M403.5382396697998,392.9000053405762 c-0.4,0 -0.9,-0.2 -1.2,-0.5 c-4.7,-4.6 -7.3,-11.3 -7.1,-17.8 c0,-0.9 0.8,-1.7000000000000002 1.8,-1.6 c0.9,0 1.7000000000000002,0.8 1.6,1.8 c-0.2,5.6 2,11.3 6,15.3 c0.7000000000000001,0.7000000000000001 0.7000000000000001,1.7000000000000002 0,2.4 C404.3382396697998,392.80000534057615 403.9382396697998,392.9000053405762 403.5382396697998,392.9000053405762 z" style="fill: rgb(165, 162, 179);" id="svg_1783"/>
	</g>
	<g id="svg_1784">
		<path class="st31" d="M405.5382396697998,391.0000053405762 c-0.5,0 -1,-0.2 -1.3,-0.6000000000000001 c-2.2,-2.6 -3.9,-5.6 -5,-8.8 c-0.30000000000000004,-0.9 0.2,-1.9 1,-2.2 c0.9,-0.30000000000000004 1.9,0.2 2.2,1 c1,2.8 2.5,5.5 4.4,7.8 c0.6000000000000001,0.7000000000000001 0.5,1.8 -0.2,2.4 C406.3382396697998,390.9000053405762 405.9382396697998,391.0000053405762 405.5382396697998,391.0000053405762 z" style="fill: rgb(165, 162, 179);" id="svg_1785"/>
	</g>
	<g id="svg_1786">
		<path class="st31" d="M401.0382396697998,395.30000534057615 c-0.4,0 -0.9,-0.2 -1.2,-0.5 c-1.7000000000000002,-1.6 -3.1,-3.7 -4.3,-6.4 c-0.9,-1.9 -1.7000000000000002,-3.8 -1.6,-6.5 c0.1,-1.9 -0.1,-4 -0.6000000000000001,-6.5 c-0.6000000000000001,-3.5 -1.6,-6.2 -3.2,-8.6 c-0.2,-0.30000000000000004 -0.4,-0.6000000000000001 -0.6000000000000001,-1 c-1.3,-1.9 -2.6,-3.9 -3.4,-6.3 c-1.6,-4.8 -1.7000000000000002,-10.1 -1.7000000000000002,-13.8 c0,-2.1 0.2,-4.2 0.4,-6.2 c0.1,-0.9 1,-1.6 1.9,-1.5 c0.9,0.1 1.6,1 1.5,1.9 c-0.30000000000000004,1.9 -0.4,3.8 -0.4,5.8 c0,3.4 0.1,8.4 1.5,12.7 c0.6000000000000001,2 1.8,3.7 3,5.4 c0.2,0.30000000000000004 0.4,0.6000000000000001 0.6000000000000001,1 c1.8,2.8 3,6 3.7,9.9 c0.5,2.8 0.7000000000000001,5.1 0.6000000000000001,7.2 c-0.1,1.8 0.30000000000000004,3 1.3,5 c1.1,2.3 2.3,4.1 3.7,5.5 c0.7000000000000001,0.7000000000000001 0.7000000000000001,1.7000000000000002 0,2.4 C401.9382396697998,395.10000534057616 401.5382396697998,395.30000534057615 401.0382396697998,395.30000534057615 z" style="fill: rgb(165, 162, 179);" id="svg_1787"/>
	</g>
	<g id="svg_1788">
		<path class="st31" d="M398.0382396697998,394.80000534057615 c-0.4,0 -0.7000000000000001,-0.1 -1.1,-0.4 c-1.9,-1.6 -3.1,-3.6 -4.3,-5.7 c-0.6000000000000001,-1.1 -1.2,-2.1 -1.9,-3.1 c-1.8,-2.4 -4.3,-4.1 -7,-6 c-0.4,-0.30000000000000004 -0.8,-0.5 -1.1,-0.8 c-3.3,-2.3 -6.5,-4.9 -8.3,-8.6 c-0.4,-0.9 0,-1.9 0.8,-2.3 c0.9,-0.4 1.9,0 2.3,0.8 c1.4,3 4.2,5.3 7.1,7.3 c0.4,0.30000000000000004 0.7000000000000001,0.5 1.1,0.8 c2.8,1.9 5.7,3.9 7.8,6.7 c0.8,1.1 1.5,2.3 2.2,3.4 c1,1.8 2,3.5 3.5,4.7 c0.7000000000000001,0.6000000000000001 0.8,1.7000000000000002 0.30000000000000004,2.4 C399.0382396697998,394.60000534057616 398.5382396697998,394.80000534057615 398.0382396697998,394.80000534057615 z" style="fill: rgb(165, 162, 179);" id="svg_1789"/>
	</g>
	<g id="svg_1790">
		<path class="st31" d="M399.3382396697998,393.7000053405762 c-0.4,0 -0.9,-0.2 -1.2,-0.5 c-2.1,-2.2 -3.1,-4.9 -4.1,-7.5 c-0.7000000000000001,-1.8 -1.3,-3.5 -2.3,-5 c-0.30000000000000004,-0.5 -0.6000000000000001,-0.9 -1,-1.4 c-0.5,-0.6000000000000001 -0.9,-1.2 -1.3,-1.9 c-0.6000000000000001,-1 -1.1,-2.1 -1.6,-3.5 c-1.7000000000000002,-5.1 -2,-10.6 -0.8,-15.8 c0.2,-0.9 1.1,-1.5 2,-1.3 c0.9,0.2 1.5,1.1 1.3,2 c-1.1,4.6 -0.8,9.5 0.7000000000000001,14 c0.4,1.2 0.8,2.1 1.3,2.8 c0.30000000000000004,0.5 0.7000000000000001,1.1 1.2,1.6 c0.4,0.5 0.8,1 1.1,1.6 c1.2,1.8 1.9,3.8 2.6,5.7 c0.9,2.4 1.8,4.7 3.4,6.3 c0.7000000000000001,0.7000000000000001 0.6000000000000001,1.7000000000000002 0,2.4 C400.1382396697998,393.5000053405762 399.7382396697998,393.7000053405762 399.3382396697998,393.7000053405762 z" style="fill: rgb(165, 162, 179);" id="svg_1791"/>
	</g>
	<g id="svg_1792">
		<path class="st31" d="M387.8382396697998,379.5000053405762 c-0.6000000000000001,0 -1.2,-0.30000000000000004 -1.5,-0.9 c-1.6,-3.2 -3.5,-6.4 -5.6,-9.4 c-0.9,-1.2 -1.8,-2.5 -2.7,-3.7 c-2.2,-2.9 -4.4,-5.9 -6.1,-9.2 c-2.7,-5.3 -4.1,-11.2 -3.8,-17.2 c0,-0.9 0.8,-1.7000000000000002 1.8,-1.6 c0.9,0 1.7000000000000002,0.8 1.6,1.8 c-0.2,5.4 1,10.7 3.4,15.5 c1.6,3.1 3.7,5.8 5.9,8.7 c0.9,1.2 1.9,2.5 2.8,3.8 c2.2,3.1 4.2,6.4 5.9,9.8 c0.4,0.8 0.1,1.9 -0.7000000000000001,2.3 C388.4382396697998,379.5000053405762 388.1382396697998,379.5000053405762 387.8382396697998,379.5000053405762 z" style="fill: rgb(165, 162, 179);" id="svg_1793"/>
	</g>
	<g id="svg_1794">
		<path class="st31" d="M384.4382396697998,377.4000053405762 c-0.4,0 -0.8,-0.1 -1.1,-0.4 c-6.1,-4.9 -10.7,-11.4 -13.5,-18.6 c-0.30000000000000004,-0.9 0.1,-1.9 1,-2.2 c0.9,-0.30000000000000004 1.9,0.1 2.2,1 c2.6,6.7 6.9,12.7 12.5,17.2 c0.7000000000000001,0.6000000000000001 0.8,1.7000000000000002 0.30000000000000004,2.4 C385.3382396697998,377.2000053405762 384.8382396697998,377.4000053405762 384.4382396697998,377.4000053405762 z" style="fill: rgb(165, 162, 179);" id="svg_1795"/>
	</g>
	<g id="svg_1796">
		<path class="st31" d="M383.8382396697998,365.4000053405762 c-0.8,0 -1.5,-0.6000000000000001 -1.7000000000000002,-1.4 c-0.30000000000000004,-1.6 -1.9,-2.9 -3.5,-4.2 c-0.6000000000000001,-0.4 -1.1,-0.9 -1.7000000000000002,-1.4 c-2.9,-2.6 -5,-6.3 -6.2,-10.6 c-1.1,-4.2 -1.2,-8.6 -1.1,-11.9 c0.1,-3.3 0.30000000000000004,-6 0.7000000000000001,-8.4 c2.1,-11.1 9.5,-21.5 22,-30.9 c6.4,-4.8 12.3,-8.2 18.3,-10.3 c0.9,-0.30000000000000004 1.9,0.1 2.2,1 c0.30000000000000004,0.9 -0.1,1.9 -1,2.2 c-5.6,2 -11.3,5.2 -17.3,9.8 c-11.8,8.9 -18.8,18.6 -20.7,28.8 c-0.4,2.2 -0.6000000000000001,4.7 -0.7000000000000001,7.9 c-0.1,3.1 0,7.1 1,10.9 c1,3.7 2.8,6.8 5.1,9 c0.5,0.4 1,0.8 1.5,1.3 c2,1.6 4.2,3.3 4.7,6.2 c0.2,0.9 -0.4,1.8 -1.3,2 C384.1382396697998,365.4000053405762 384.0382396697998,365.4000053405762 383.8382396697998,365.4000053405762 z" style="fill: rgb(165, 162, 179);" id="svg_1797"/>
	</g>
	<g id="svg_1798">
		<path class="st31" d="M382.8382396697998,356.7000053405762 c-0.8,0 -1.5,-0.6000000000000001 -1.7000000000000002,-1.4 c-1.5,-7.9 -1,-16.4 1.6,-27 c3.1,-12.8 7.9,-22.2 14.6,-28.7 c7,-6.7 16.6,-10.6 26.3,-10.5 c0.9,0 1.7000000000000002,0.8 1.7000000000000002,1.7000000000000002 c0,0.9 -0.8,1.7000000000000002 -1.7000000000000002,1.7000000000000002 c0,0 -0.1,0 -0.1,0 c-8.8,0 -17.5,3.5 -23.9,9.6 c-6.3,6 -10.7,14.8 -13.7,27 c-2.4,10.1 -2.9,18.2 -1.5,25.6 c0.2,0.9 -0.4,1.8 -1.4,2 C383.0382396697998,356.7000053405762 382.9382396697998,356.7000053405762 382.8382396697998,356.7000053405762 z" style="fill: rgb(165, 162, 179);" id="svg_1799"/>
	</g>
	<g id="svg_1800">
		<path class="st31" d="M380.1382396697998,358.7000053405762 c-0.1,0 -0.1,0 -0.2,0 c-0.7000000000000001,-0.1 -1.6,-0.6000000000000001 -1.8,-1.9 c-0.9,-7.3 -1,-13.8 -0.1,-19.8 c0.7000000000000001,-4.4 1.8,-8.6 2.8,-11.7 c2.1,-7.1 5.1,-15.3 10.5,-22.1 c4.1,-5.1 9.6,-9.6 17.4,-14 c3.8,-2.2 8,-4.3 12.7,-4.7 c0.9,-0.1 1.8,0.6000000000000001 1.9,1.5 c0.1,0.9 -0.6000000000000001,1.8 -1.5,1.9 c-4.1,0.4 -7.9,2.3 -11.4,4.3 c-7.4,4.2 -12.6,8.4 -16.4,13.2 c-5,6.3 -7.8,14.1 -9.9,20.9 c-0.9,3.1 -2.1,7.1 -2.7,11.3 c-0.8,5.5 -0.8,11.4 0,18.1 c0.4,0.5 0.6000000000000001,1.2 0.4,1.9 C381.5382396697998,358.30000534057615 380.8382396697998,358.7000053405762 380.1382396697998,358.7000053405762 z" style="fill: rgb(165, 162, 179);" id="svg_1801"/>
	</g>
	<g id="svg_1802">
		<path class="st31" d="M378.5382396697998,351.30000534057615 c-0.8,0 -1.6,-0.6000000000000001 -1.7000000000000002,-1.5 c-0.7000000000000001,-5.5 -0.7000000000000001,-11.1 0.2,-16.6 c0.5,-3 1.2,-6.2 2.3,-10 c0.9,-3.2 2.1,-6.9 3.9,-10.3 c1.9,-3.5 4.5,-6.5 7,-9.2 c3.6,-4 8.5,-9 14.5,-12.6 c4.4,-2.6 11.2,-5.6 19,-4.7 l0.4,0 c0.6000000000000001,0.1 1.2,0.1 1.7000000000000002,0.1 c0.5,-0.1 1,-0.30000000000000004 1.4,-0.6000000000000001 c0.7000000000000001,-0.6000000000000001 1.8,-0.6000000000000001 2.4,0.1 c0.6000000000000001,0.7000000000000001 0.6000000000000001,1.8 -0.1,2.4 c-0.9,0.8 -2,1.3 -3.2,1.5 c-0.9,0.1 -1.8,0 -2.6,-0.1 l-0.4,0 c-6.8,-0.7000000000000001 -13,1.9 -16.9,4.3 c-5.6,3.4 -10.3,8.2 -13.8,12 c-2.3,2.6 -4.7,5.4 -6.5,8.6 c-1.7000000000000002,3.1 -2.7,6.4 -3.6,9.5 c-1,3.7 -1.7000000000000002,6.7 -2.2,9.6 c-0.8,5.2 -0.8,10.4 -0.2,15.6 c0.1,0.9 -0.5,1.8 -1.5,1.9 C378.6382396697998,351.30000534057615 378.5382396697998,351.30000534057615 378.5382396697998,351.30000534057615 z" style="fill: rgb(165, 162, 179);" id="svg_1803"/>
	</g>
	<g id="svg_1804">
		<path class="st31" d="M386.6382396697998,373.60000534057616 c-0.6000000000000001,0 -1.2,-0.30000000000000004 -1.5,-0.9 c-3.6,-6.8 -7.4,-13.9 -9.5,-21.6 c-2.1,-7.9 -2.3,-16.4 -0.6000000000000001,-24.6 c2.6,-12.3 9.3,-23.5 19.1,-31.5 c0.7000000000000001,-0.6000000000000001 1.8,-0.5 2.4,0.2 c0.6000000000000001,0.7000000000000001 0.5,1.8 -0.2,2.4 c-9.2,7.5 -15.5,17.9 -17.9,29.5 c-1.6,7.6 -1.4,15.6 0.6000000000000001,23 c2,7.4 5.6,14.3 9.2,20.9 c0.4,0.8 0.1,1.9 -0.7000000000000001,2.3 C387.1382396697998,373.5000053405762 386.8382396697998,373.60000534057616 386.6382396697998,373.60000534057616 z" style="fill: rgb(165, 162, 179);" id="svg_1805"/>
	</g>
	<g id="svg_1806">
		<path class="st31" d="M419.9382396697998,396.4000053405762 c-0.6000000000000001,0 -1.2,-0.30000000000000004 -1.5,-0.9 c-0.4,-0.8 -0.1,-1.9 0.8,-2.3 c8,-4 15.1,-7.7 21.4,-12.8 c9.6,-7.9 16.4,-18.7 23,-29.1 c3,-4.8 6.2,-9.8 8.1,-15.2 c1.2,-3.3 2,-6.8 2.6,-9.7 c0.7000000000000001,-3.4 1.4,-7.3 1,-11 c-0.30000000000000004,-3.9 -1.8,-7.2 -4,-9.3 c-0.7000000000000001,-0.6000000000000001 -0.7000000000000001,-1.7000000000000002 -0.1,-2.4 c0.6000000000000001,-0.7000000000000001 1.7000000000000002,-0.7000000000000001 2.4,-0.1 c2.9,2.7 4.7,6.8 5.1,11.5 c0.4,4.2 -0.4,8.4 -1.1,12 c-0.6000000000000001,3.1 -1.4,6.7 -2.7,10.2 c-2.1,5.7 -5.3,10.9 -8.5,15.8 c-6.7,10.7 -13.6,21.7 -23.7,29.9 c-6.5,5.3 -13.8,9.1 -22,13.2 C420.4382396697998,396.30000534057615 420.2382396697998,396.4000053405762 419.9382396697998,396.4000053405762 z" style="fill: rgb(165, 162, 179);" id="svg_1807"/>
	</g>
	<g id="svg_1808">
		<path class="st31" d="M467.0382396697998,355.5000053405762 c-0.5,0 -1,-0.2 -1.3,-0.6000000000000001 c-0.6000000000000001,-0.7000000000000001 -0.5,-1.8 0.2,-2.4 c5.2,-4.2 8.7,-11 9.9,-19 c1.2,-8 -0.1,-16.2 -1.4,-22.4 c-0.2,-0.9 0.4,-1.8 1.3,-2 c0.9,-0.2 1.8,0.4 2,1.3 c1.3,6.5 2.6,15.1 1.4,23.6 c-1.3,8.8 -5.2,16.3 -11.1,21.1 C467.7382396697998,355.30000534057615 467.4382396697998,355.5000053405762 467.0382396697998,355.5000053405762 z" style="fill: rgb(165, 162, 179);" id="svg_1809"/>
	</g>
	<g id="svg_1810">
		<path class="st29" d="M303.4382396697998,55.80000534057618 c-1.5,-28.4 -5.6,-43.5 -8.8,-51.2 c-1.7000000000000002,-4.1 -6.9,-5.4 -10.3,-2.6 c-15,12.5 -27.9,34.5 -27.9,34.5 l-38.3,5 c0,0 0,0.1 0,0.1 l-10.1,1.4 c0,0 -18.2,-17.9 -36,-26 c-4,-1.8 -8.7,0.8 -9.3,5.2 c-1,8.2 -1.1,23.9 4.9,51.7 c0,0 2.9,20.4 -5.8,35 c0,0 14.1,6.5 18.7,14.9 c4.6,8.4 9.5,23 31.3,24.4 c14.1,0.9 18.2,4.6 36.4,2 c18.1,-2.5 19,-6.7 32,-11.2 c20.7,-7.1 21.5,-22.4 23.8,-31.7 c2.3,-9.3 14.2,-19.3 14.2,-19.3 C306.0382396697998,76.20000534057617 303.4382396697998,55.80000534057618 303.4382396697998,55.80000534057618 z" style="fill: rgb(116, 82, 119);" id="svg_1811"/>
		<path class="st4" d="M236.8382396697998,151.60000534057616 L236.8382396697998,151.60000534057616 c-5.2,0 -9.1,-0.7000000000000001 -13.2,-1.4 c-3.5,-0.6000000000000001 -7,-1.2 -11.8,-1.5 c-19.6,-1.3 -25.7,-13.1 -30.1,-21.6 c-0.5,-1.1 -1,-2 -1.6,-3 c-4.5,-8.2 -18.4,-14.6 -18.5,-14.7 l-0.4,-0.2 l0.2,-0.4 c8.5,-14.4 5.7,-34.5 5.7,-34.7 c-6,-27.8 -6,-43.5 -4.9,-51.8 c0.4,-3.5 3.4,-6.2 7,-6.2 c1,0 2,0.2 2.9,0.6000000000000001 c16.8,7.7 34.2,24.2 36,26 l9.6,-1.3 l0,-0.1 l38.4,-5 c1.3,-2.1 13.7,-22.7 27.9,-34.5 c1.3,-1.1 2.8,-1.6 4.5,-1.6 c2.9,0 5.4,1.7000000000000002 6.5,4.4 c3.2,7.8 7.3,23 8.8,51.4 c0,0.2 2.7,20.4 14.6,32 l0.30000000000000004,0.30000000000000004 l-0.4,0.30000000000000004 c-0.1,0.1 -11.8,9.9 -14,19 c-0.2,1 -0.5,2.1 -0.7000000000000001,3.3 c-2,9.4 -4.7,22.4 -23.3,28.7 c-4.7,1.6 -7.8,3.2 -10.7,4.6 c-5.2,2.6 -9.7,4.9 -21.4,6.6 C244.0382396697998,151.30000534057618 240.23823966979978,151.60000534057616 236.8382396697998,151.60000534057616 zM162.4382396697998,108.80000534057618 c1.1,0.5 4,2 7.2,4.1 c5.5,3.6 9.3,7.2 11.2,10.8 c0.5,0.9 1,1.9 1.6,3 c4.3,8.4 10.2,19.9 29.3,21.2 c4.8,0.30000000000000004 8.4,0.9 11.9,1.5 c4.1,0.7000000000000001 7.9,1.4 13.1,1.4 h0 c3.4,0 7.1,-0.30000000000000004 11.3,-0.9 c11.5,-1.6 16,-3.9 21.1,-6.5 c3,-1.5 6.1,-3.1 10.8,-4.7 c18.2,-6.2 20.8,-18.9 22.8,-28.1 c0.2,-1.2 0.5,-2.3 0.7000000000000001,-3.3 c1,-3.9 3.7,-8.4 8,-13.3 c2.6,-2.9 5,-5.1 5.9,-5.9 c-11.9,-11.9 -14.5,-32 -14.5,-32.2 c-1.5,-28.3 -5.6,-43.4 -8.7,-51.1 c-1,-2.3 -3.2,-3.8 -5.7,-3.8 c-1.4,0 -2.8,0.5 -3.9,1.4 c-14.8,12.3 -27.7,34.2 -27.8,34.4 l-0.1,0.2 l-38.1,5 l0,0.1 l-10.7,1.5 l-0.1,-0.1 c-0.2,-0.2 -18.4,-18 -35.9,-26 c-0.8,-0.4 -1.7000000000000002,-0.6000000000000001 -2.5,-0.6000000000000001 c-3.1,0 -5.7,2.3 -6.1,5.4 c-1,8.3 -1,23.9 4.9,51.6 C168.13823966979982,74.10000534057617 170.8382396697998,94.20000534057618 162.4382396697998,108.80000534057618 z" style="fill: rgb(81, 39, 85);" id="svg_1812"/>
	</g>
	<g id="svg_1813">
		<path class="st25" d="M179.13823966979982,81.40000534057617 c2.5,1.4 4.5,1.8 6.2,1.6 c3.1,-0.30000000000000004 5.4,-3.1 5.2,-6.2 c-0.2,-3.4 -0.9,-6.8 -1.9,-10.1 c1.4,2.4 2.8,4.8 4.1,7.3 c0.6000000000000001,-2.8 0.9,-5.7 0.7000000000000001,-8.6 c1.3,2 2.7,4.1 4,6.1 c2,-9.4 1.1,-19.3 -2.6,-28.1 c4.8,4.7 8.4,10.7 10.2,17.2 c1.5,-0.6000000000000001 2.1,-2.3 2.5,-3.9 c1.2,-5.7 -1.8,-13.4 -4.7,-18.4 c-6.7,-5.9 -18.9,-15.8 -30.8,-21.3 c-4,-1.8 -8.7,0.8 -9.3,5.2 c-0.8,6.4 -1,17.4 1.8,35 C164.5382396697998,57.30000534057618 170.8382396697998,76.90000534057617 179.13823966979982,81.40000534057617 z" style="fill: rgb(232, 157, 172);" id="svg_1814"/>
		<path class="st4" d="M184.63823966979982,83.50000534057617 L184.63823966979982,83.50000534057617 c-1.8,0 -3.7,-0.6000000000000001 -5.7,-1.7000000000000002 c-8.4,-4.6 -14.7,-24.2 -14.8,-24.4 l0,-0.1 c-2.9,-18.1 -2.6,-29.1 -1.8,-35.2 c0.4,-3.5 3.4,-6.2 7,-6.2 c1,0 2,0.2 2.9,0.6000000000000001 c12.2,5.6 24.6,15.8 30.9,21.4 l0.1,0 l0,0.1 c1.5,2.6 6.1,11.7 4.7,18.7 c-0.5,2.3 -1.4,3.7 -2.7,4.2 l-0.4,0.2 l-0.1,-0.4 c-1.6,-5.8 -4.6,-11.1 -8.6,-15.5 c3.1,8.4 3.7,17.7 1.8,26.4 l-0.2,1 l-3.8,-5.7 c0,2.4 -0.2,4.8 -0.8,7.2 l-0.2,1.1 l-3,-5.3 c0.5,2.2 0.8,4.5 1,6.9 c0.2,3.4 -2.3,6.4 -5.6,6.7 C185.0382396697998,83.50000534057617 184.8382396697998,83.50000534057617 184.63823966979982,83.50000534057617 zM164.9382396697998,57.100005340576175 c0.30000000000000004,0.9 6.5,19.5 14.4,23.9 c1.9,1.1 3.7,1.6 5.3,1.6 h0 c0.2,0 0.4,0 0.6000000000000001,0 c2.9,-0.2 5,-2.8 4.8,-5.8 c-0.30000000000000004,-3.5 -0.9,-6.9 -1.9,-10 l-1.2,-3.8 l5.6,9.8 c0.4,-2.4 0.6000000000000001,-4.9 0.5,-7.4 l-0.1,-1.6 l4.3,6.6 c1.7000000000000002,-9 0.7000000000000001,-18.5 -2.8,-26.9 l-0.8,-1.9 l1.5,1.5 c4.8,4.7 8.3,10.5 10.2,16.9 c0.8,-0.5 1.4,-1.7000000000000002 1.8,-3.4 c1.1,-5.3 -1.6,-12.8 -4.6,-18 c-6.3,-5.6 -18.6,-15.7 -30.7,-21.2 c-0.8,-0.4 -1.7000000000000002,-0.6000000000000001 -2.5,-0.6000000000000001 c-3.1,0 -5.7,2.3 -6.1,5.4 C162.4382396697998,28.20000534057617 162.13823966979982,39.100005340576175 164.9382396697998,57.100005340576175 z" style="fill: rgb(81, 39, 85);" id="svg_1815"/>
	</g>
	<g id="svg_1816">
		<path class="st25" d="M294.3382396697998,66.00000534057617 c-2,2 -3.9,2.9 -5.5,3.2 c-3.1,0.6000000000000001 -6,-1.6 -6.6,-4.7 c-0.7000000000000001,-3.4 -1,-6.8 -0.8,-10.2 c-0.7000000000000001,2.7 -1.4,5.4 -2.1,8.1 c-1.3,-2.6 -2.3,-5.3 -2.9,-8.1 c-0.8,2.3 -1.5,4.6 -2.3,7 c-4.4,-8.5 -6.1,-18.4 -4.9,-27.8 c-3.4,5.8 -5.3,12.5 -5.3,19.3 c-1.6,-0.2 -2.7,-1.7000000000000002 -3.4,-3.1 c-2.6,-5.2 -1.7000000000000002,-13.4 -0.30000000000000004,-19 c4.9,-7.4 14.1,-20.2 24.2,-28.6 c3.4,-2.8 8.6,-1.5 10.3,2.6 c2.5,6 5.5,16.5 7.4,34.3 C302.1382396697998,39.000005340576166 301.1382396697998,59.500005340576166 294.3382396697998,66.00000534057617 z" style="fill: rgb(232, 157, 172);" id="svg_1817"/>
		<path class="st4" d="M287.8382396697998,69.70000534057617 c-2.9,0 -5.5,-2.1 -6.1,-5.1 c-0.5,-2.3 -0.7000000000000001,-4.7 -0.8,-6.9 l-1.5,5.9 l-0.5,-1 c-1.1,-2.2 -2,-4.4 -2.6,-6.8 l-2.1,6.5 l-0.5,-0.9 c-4.1,-7.9 -5.9,-17.1 -5.1,-26 c-2.7,5.3 -4.2,11.2 -4.3,17.2 l0,0.5 l-0.5,0 c-1.4,-0.2 -2.7,-1.3 -3.7,-3.3 c-3.2,-6.4 -1.1,-16.4 -0.30000000000000004,-19.3 l0,-0.1 l0,-0.1 c4.6,-7.1 14,-20.2 24.3,-28.7 c1.3,-1.1 2.8,-1.6 4.5,-1.6 c2.9,0 5.4,1.7000000000000002 6.5,4.4 c2.3,5.6 5.5,16.2 7.5,34.4 l0,0 l0,0 c0,0.2 -1,20.7 -7.9,27.5 c-1.9,1.8 -3.8,3 -5.7,3.3 C288.5382396697998,69.70000534057617 288.2382396697998,69.70000534057617 287.8382396697998,69.70000534057617 zM281.9382396697998,50.40000534057617 l-0.2,4 c-0.1,3.2 0.1,6.7 0.8,10.1 c0.5,2.6 2.7,4.4 5.2,4.4 c0.30000000000000004,0 0.6000000000000001,0 0.9,-0.1 c1.7000000000000002,-0.30000000000000004 3.5,-1.3 5.3,-3.1 c6.5,-6.3 7.6,-25.9 7.6,-26.9 c-2,-18.1 -5.1,-28.6 -7.4,-34.1 c-1,-2.3 -3.2,-3.8 -5.7,-3.8 c-1.4,0 -2.8,0.5 -3.9,1.4 c-10.2,8.4 -19.4,21.4 -24.1,28.5 c-1.5,5.8 -2.1,13.7 0.30000000000000004,18.6 c0.8,1.5 1.6,2.5 2.6,2.8 c0.2,-6.7 2,-13.2 5.4,-19 l1.1,-1.8 l-0.30000000000000004,2.1 c-1.2,9 0.4,18.5 4.3,26.7 l2.4,-7.5 l0.30000000000000004,1.5 c0.5,2.4 1.3,4.8 2.4,7 L281.9382396697998,50.40000534057617 z" style="fill: rgb(81, 39, 85);" id="svg_1818"/>
	</g>
	<g id="svg_1819">
		<path d="M225.4382396697998,90.60000234057617 A9.1,7.9 0 0 1 216.3382396697998,98.50000234057617 A9.1,7.9 0 0 1 207.2382396697998,90.60000234057617 A9.1,7.9 0 0 1 216.3382396697998,82.70000234057618 A9.1,7.9 0 0 1 225.4382396697998,90.60000234057617 z" class="st23" style="fill: rgb(174, 238, 183);" id="svg_1820"/>
		<path class="st20" d="M216.3382396697998,98.80000534057618 c-5.1,0 -9.3,-3.7 -9.3,-8.1 c0,-4.5 4.2,-8.1 9.3,-8.1 c5.1,0 9.3,3.7 9.3,8.1 C225.63823966979982,95.10000534057616 221.4382396697998,98.80000534057618 216.3382396697998,98.80000534057618 zM216.3382396697998,82.90000534057617 c-4.9,0 -8.9,3.5 -8.9,7.7 c0,4.3 4,7.7 8.9,7.7 c4.9,0 8.9,-3.5 8.9,-7.7 C225.2382396697998,86.40000534057617 221.2382396697998,82.90000534057617 216.3382396697998,82.90000534057617 z" style="fill: rgb(55, 1, 38);" id="svg_1821"/>
	</g>
	<g id="svg_1822">
		<path d="M274.7382276697998,84.40000534057617 A9.1,7.9 0 0 1 265.6382276697998,92.30000534057618 A9.1,7.9 0 0 1 256.5382266697998,84.40000534057617 A9.1,7.9 0 0 1 265.6382276697998,76.50000534057617 A9.1,7.9 0 0 1 274.7382276697998,84.40000534057617 z" class="st23" style="fill: rgb(174, 238, 183);" id="svg_1823"/>
		<path class="st20" d="M265.6382396697998,92.60000534057616 c-5.1,0 -9.3,-3.7 -9.3,-8.1 c0,-4.5 4.2,-8.1 9.3,-8.1 s9.3,3.7 9.3,8.1 C274.9382396697998,88.90000534057617 270.7382396697998,92.60000534057616 265.6382396697998,92.60000534057616 zM265.6382396697998,76.70000534057617 c-4.9,0 -8.9,3.5 -8.9,7.7 s4,7.7 8.9,7.7 c4.9,0 8.9,-3.5 8.9,-7.7 S270.5382396697998,76.70000534057617 265.6382396697998,76.70000534057617 z" style="fill: rgb(55, 1, 38);" id="svg_1824"/>
	</g>
	<g id="svg_1825">
		<path d="M219.4382426697998,89.70000834057618 A3.3,4.5 0 0 1 216.1382426697998,94.20000834057618 A3.3,4.5 0 0 1 212.8382426697998,89.70000834057618 A3.3,4.5 0 0 1 216.1382426697998,85.20000834057618 A3.3,4.5 0 0 1 219.4382426697998,89.70000834057618 z" class="st20" style="fill: rgb(55, 1, 38);" id="svg_1826"/>
	</g>
	<g id="svg_1827">
		
			<path d="M268.042616498563,83.07674564028639 A3.09163,4.0889299999999995 0 0 1 265.25431110758143,87.39501769598638 A3.09163,4.0889299999999995 0 0 1 261.85935649856305,83.53543174628639 A3.09163,4.0889299999999995 0 0 1 264.6476618155631,79.2171586932864 A3.09163,4.0889299999999995 0 0 1 268.042616498563,83.07674564028639 z" class="st20" style="fill: rgb(55, 1, 38);" id="svg_1828"/>
	</g>
	<g id="svg_1829">
		<path d="M221.13823966979982,87.90000534057617 A1.8,1.8 0 0 1 219.3382396697998,89.70000534057618 A1.8,1.8 0 0 1 217.5382396697998,87.90000534057617 A1.8,1.8 0 0 1 219.3382396697998,86.10000534057617 A1.8,1.8 0 0 1 221.13823966979982,87.90000534057617 z" class="st21" style="fill: rgb(242, 242, 242);" id="svg_1830"/>
	</g>
	<g id="svg_1831">
		<path d="M269.2382456697998,81.40000534057617 A1.8,1.8 0 0 1 267.4382456697998,83.20000534057617 A1.8,1.8 0 0 1 265.6382456697998,81.40000534057617 A1.8,1.8 0 0 1 267.4382456697998,79.60000534057617 A1.8,1.8 0 0 1 269.2382456697998,81.40000534057617 z" class="st21" style="fill: rgb(242, 242, 242);" id="svg_1832"/>
	</g>
	<g id="svg_1833">
		<path class="st22" d="M255.73823966979978,102.50000534057617 c-0.5,-1.7000000000000002 -0.8,-3.4 -1.1,-5.2 c-0.5,-4.2 -1.9,-8.8 -3.8,-12.9 c-1.1,-2.4 -1,-5.1 0.1,-7.4 c0.1,-0.30000000000000004 0.30000000000000004,-0.6000000000000001 0.4,-0.8 c0.6000000000000001,-0.8 1,-1.6 1.4,-2.5 l0,0 c0.1,-0.2 0.1,-0.30000000000000004 0.2,-0.5 c0.4,-1.3 0.6000000000000001,-2.7 0.4,-4.1 c-0.8,-6.2 -7.8,-10.4 -15.8,-9.4 c-7.9,1 -13.8,6.8 -13,13 c0.2,1.5 0.8,3 1.7000000000000002,4.2 c0,0.30000000000000004 0.2,0.6000000000000001 0.4,0.8 c0,0 1.2,1 2.8,2.6 c1.8,1.9 2.7,4.4 2.4,7 c-0.5,4.5 -0.5,9.3 0.30000000000000004,13.4 c0.30000000000000004,1.7000000000000002 0.5,3.5 0.6000000000000001,5.2 c0,0.6000000000000001 0.1,1.2 0.30000000000000004,1.7000000000000002 l22.9,-3.9 C255.93823966979983,103.40000534057617 255.93823966979983,103.00000534057617 255.73823966979978,102.50000534057617 z" style="fill: rgb(151, 125, 153);" id="svg_1834"/>
	</g>
	<g id="svg_1835">
		<path d="M233.13822746276855,107.79999923706055 L233.13822746276855,107.79999923706055 L233.13822746276855,107.79999923706055 z" class="st23" style="fill: rgb(174, 238, 183);" id="svg_1836"/>
	</g>
	<g id="svg_1837">
		<path d="M256.03825187683105,103.90000534057617 L256.03825187683105,103.90000534057617 L256.03825187683105,103.90000534057617 z" class="st23" style="fill: rgb(174, 238, 183);" id="svg_1838"/>
	</g>
	<g id="svg_1839">
		<path class="st20" d="M234.8382396697998,133.20000534057618 c-0.1,0 -0.30000000000000004,0 -0.4,-0.1 c-0.4,-0.2 -0.6000000000000001,-0.7000000000000001 -0.4,-1.1 c3.2,-6 9.5,-9.5 11.4,-10.5 l-0.8,-6.9 c-0.1,-0.5 0.30000000000000004,-0.9 0.7000000000000001,-0.9 c0.5,-0.1 0.9,0.30000000000000004 0.9,0.7000000000000001 l0.9,8.2 l-0.6000000000000001,0.30000000000000004 c-0.1,0 -7.8,3.6 -11.2,10 C235.43823966979983,133.00000534057617 235.13823966979982,133.20000534057618 234.8382396697998,133.20000534057618 z" style="fill: rgb(55, 1, 38);" id="svg_1840"/>
	</g>
	<g id="svg_1841">
		<path class="st20" d="M257.7382396697998,129.40000534057617 c-0.30000000000000004,0 -0.6000000000000001,-0.2 -0.7000000000000001,-0.4 c-3,-5.3 -10.5,-6.2 -10.6,-6.2 c-0.5,-0.1 -0.8,-0.5 -0.8,-0.9 s0.5,-0.8 0.9,-0.8 c0.30000000000000004,0 8.4,1 11.9,7 c0.2,0.4 0.1,0.9 -0.30000000000000004,1.2 C258.0382396697998,129.30000534057618 257.8382396697998,129.40000534057617 257.7382396697998,129.40000534057617 z" style="fill: rgb(55, 1, 38);" id="svg_1842"/>
	</g>
	<g id="svg_1843">
		<path d="M256.03825187683105,103.90000534057617 L233.13822746276855,107.79999923706055 L245.63822746276855,114.40000534057617 L256.03825187683105,103.90000534057617 z" class="st25" style="fill: rgb(232, 157, 172);" id="svg_1844"/>
	</g>
	<g id="svg_1845">
		<path class="st4" d="M165.9382396697998,391.30000534057615 c0,0 -0.1,0 -0.1,0 c-0.2,-0.1 -0.30000000000000004,-0.30000000000000004 -0.30000000000000004,-0.5 c0.1,-0.2 5.4,-16.3 19.3,-22.6 c8.2,-3.7 17.7,-3.4 28.1,1.1 c0.2,0.1 0.30000000000000004,0.30000000000000004 0.2,0.6000000000000001 c-0.1,0.2 -0.30000000000000004,0.30000000000000004 -0.6000000000000001,0.2 c-10.3,-4.4 -19.5,-4.7 -27.5,-1.1 c-13.5,6.2 -18.8,21.9 -18.8,22.1 C166.2382396697998,391.2000053405762 166.13823966979982,391.30000534057615 165.9382396697998,391.30000534057615 z" style="fill: rgb(81, 39, 85);" id="svg_1846"/>
	</g>
	<g id="svg_1847">
		<path class="st4" d="M98.73823966979981,390.2000053405762 c-0.1,0 -0.30000000000000004,-0.1 -0.4,-0.2 c-0.1,-0.2 -0.1,-0.5 0.1,-0.6000000000000001 c0.1,-0.1 7.7,-5.3 6.8,-11.4 c-0.7000000000000001,-4.6 -6.1,-8.5 -16,-11.7 c-9.3,-2.9 -18.6,-4.6 -26.9,-6 c-13.2,-2.3 -23.7,-4.2 -26.8,-10 c-1.4,-2.6 -1.2,-5.9 0.6000000000000001,-10 c8.2,-18.6 14.5,-36.5 9.6,-67.1 c0,-0.2 0.1,-0.4 0.4,-0.5 c0.2,0 0.4,0.1 0.5,0.4 c5,30.8 -1.5,48.9 -9.7,67.6 c-1.7000000000000002,3.8 -1.9,6.9 -0.6000000000000001,9.2 c2.9,5.4 13.2,7.2 26.2,9.5 c8.3,1.5 17.7,3.1 27,6.1 c10.2,3.2 15.8,7.4 16.5,12.4 c1,6.6 -6.8,12 -7.1,12.2 C98.9382396697998,390.2000053405762 98.8382396697998,390.2000053405762 98.73823966979981,390.2000053405762 z" style="fill: rgb(81, 39, 85);" id="svg_1848"/>
	</g>
	<g id="svg_1849">
		<g id="svg_1850">
			<path class="st27" d="M289.9382396697998,305.80000534057615 l-0.1,-0.2 l-0.1,-0.2 c-0.30000000000000004,-0.6000000000000001 -0.5,-1.3 -0.7000000000000001,-2.1 c-0.2,-0.9 -0.5,-1.9 -1,-3 c-1.4,-2.9 -2.8,-5.1 -4.5,-7.2 c-4.2,-5.1 -8.2,-9 -13.1,-12.7 L270.3382396697998,280.4000053405762 c-6.2,-4.2 -12.1,-7.8 -17.9,-11.4 c-6.8,-4.2 -13.1,-8.1 -19.9,-12.8 c-6.9,-5.1 -12.6,-9.7 -18.5,-15.1 c-10.8,-11.3 -17.1,-22.8 -19.8,-36.2 l-0.30000000000000004,-2.2 c-0.7000000000000001,-4.6 -1.4,-9 -1.8,-13.3 c-1.4,-39.3 -1.7000000000000002,-71.9 7.6,-105.5 l0,-0.2 c0.4,-2.6 0.8,-4.5 1.6,-6.9 c0.7000000000000001,-1.9 1.4,-3.8 2.1,-5.7 c2.5,-6.9 4.9,-13.4 8.8,-19.9 l0.1,-0.1 c0.4,-0.7000000000000001 0.7000000000000001,-1.4 1.1,-2 c0.5,-0.8 1,-1.7000000000000002 1.4,-2.7 c3.2,-6.8 13.7,-9.5 22,-10.5 c2.3,-0.30000000000000004 4.6,-0.2 6.4,-0.1 c2.7,0.1 5.7,0.4 8.5,1.2 c0.6000000000000001,-0.1 1.1,-0.2 1.7000000000000002,-0.2 c0.6000000000000001,0 1.2,-0.1 1.7000000000000002,-0.1 c0.2,0 0.4,-0.1 0.6000000000000001,-0.1 c0.4,-0.7000000000000001 0.9,-1.4 1.4,-2 c-0.1,-0.1 -0.30000000000000004,-0.2 -0.4,-0.30000000000000004 c-4.5,-2.1 -9.5,-2.6 -13.3,-2.8 c-2,-0.1 -4.6,-0.2 -7.1,0.2 c-13.4,1.7000000000000002 -22.1,6.2 -25.3,12.9 c-0.4,0.9 -0.8,1.6 -1.3,2.4 c-0.4,0.7000000000000001 -0.8,1.4 -1.2,2.2 c-4.1,6.8 -6.5,13.5 -9.1,20.5 c-0.7000000000000001,1.8 -1.4,3.8 -2.1,5.7 l0,0.1 c-0.9,2.6 -1.3,4.8 -1.8,7.4 c-9.4,34.1 -9.1,67.1 -7.7,106.8 l0,0.1 c0.4,4.5 1.1,8.9 1.8,13.7 l0.30000000000000004,2.2 l0,0.1 c2.8,14.1 9.7,26.7 20.9,38.4 l0.1,0.1 c6,5.6 11.9,10.2 18.9,15.4 l0.1,0 c6.9,4.8 13.6,9 20.1,13 c5.7,3.5 11.6,7.1 17.7,11.2 c4.7,3.5 8.4,7.1 12.3,11.9 c1.5,1.9 2.7,3.8 4,6.4 c0.30000000000000004,0.6000000000000001 0.5,1.3 0.7000000000000001,2.1 c0.2,0.8 0.4,1.8 0.9,2.8 c0.7000000000000001,2.7 0.8,5.7 0.30000000000000004,9.6 c-1.4,6.7 -4,14.6 -11.5,24.5 c0.8,0.9 1.3,2 1.7000000000000002,3.2 c0.2,0.30000000000000004 0.4,0.6000000000000001 0.6000000000000001,0.8 c6.2,-7.9 11.2,-17 13.4,-27.8 l0,-0.2 C290.9382396697998,312.7000053405762 290.7382396697998,309.10000534057616 289.9382396697998,305.80000534057615 z" style="fill: rgb(189, 186, 205);" id="svg_1851"/>
		</g>
		<g id="svg_1852">
			<path class="st27" d="M290.8382396697998,359.9000053405762 c-0.30000000000000004,-1.8 -1.1,-6.5 -5.5,-8.4 l-0.4,-0.2 h-0.4 c-1.2,0 -2.3,0 -3,0.1 c0,0 0,0 0,0 c0.1,0.2 0.2,0.4 0.4,0.7000000000000001 c1,1 1.8,2.2 2.3,3.6 c1.3,0.8 2.1,2.2 2.5,4.8 c0,0.1 0,0.2 0,0.2 l-0.1,0.1 l-0.2,0.4 c-0.8,2 -1.5,3.8 -2.9,5.2 c-13.8,13.8 -33.1,21.2 -53.2,20.3 c-1.1,-3 0.6000000000000001,-6.3 3.2,-8.1 c1.1,-0.7000000000000001 2.2,-1.3 3.4,-2 c-1,-1 -1.8,-2.2 -2.4,-3.5 c-1.1,0.6000000000000001 -2.2,1.2 -3.3,1.9 l-0.1,0 c-4.5,3 -7.3,9.4 -4,14.8 l0.6000000000000001,1 l1.1,0.1 c1.6,0.1 3.2,0.1 4.8,0.1 c20,0 39.1,-7.7 52.9,-21.6 c1.9,-1.9 2.9,-4.2 3.8,-6.4 c0.7000000000000001,-1 0.7000000000000001,-2.2 0.7000000000000001,-2.8 v-0.2 L290.8382396697998,359.9000053405762 z" style="fill: rgb(189, 186, 205);" id="svg_1853"/>
		</g>
	</g>
	<g id="svg_1854">
		<g id="svg_1855">
			<path class="st27" d="M294.2382396697998,232.0000053405762 c-0.2,0.6000000000000001 -0.4,1.2 -0.6000000000000001,1.7000000000000002 c-0.2,1.5 -0.8,2.9 -1.7000000000000002,4.2 c-0.1,0.30000000000000004 -0.2,0.5 -0.30000000000000004,0.8 c-0.2,1.6 -0.8,3 -1.7000000000000002,4.2 c-0.1,0.9 -0.30000000000000004,1.9 -0.4,2.8 c-1.9,11.2 -5.4,22.1 -10.5,32.4 c-5.1,10.4 -11.5,19.9 -19.2,28.2 c-8.5,9.3 -18.4,17.1 -28.6,25 c-7.5,5.7 -15.1,11.6 -22.4,17.2 c-3.5,2.7 -7.1,5.4 -10.6,8.1 c-2.2,1.7000000000000002 -4.4,3.4 -6.5,5.1 c-7.9,6.2 -16.1,12.5 -24.7,17.9 c-9.9,6.2 -21.1,10.5 -35.1,13.5 c-8.7,1.9 -19.6,4.1 -30.9,6 c0.8,-4.3 0.5,-8.7 -1,-12.7 c-2.4,-6.5 -8.1,-11.2 -12.5,-14 c-5.1,-3.2 -10.7,-5.5 -16.1,-7.7 l-0.9,-0.4 c-2.6,-1 -5.9,-2.4 -9.4,-3.3 c-1,-0.30000000000000004 -2,-0.5 -2.9,-0.6000000000000001 c-0.5,-0.1 -1,-0.2 -1.5,-0.30000000000000004 c-0.5,-0.1 -1,-0.30000000000000004 -1.6,-0.4 c-1,-0.30000000000000004 -2.1,-0.6000000000000001 -3.3,-0.7000000000000001 c-5.9,-0.5 -12.6,-1.1 -18.6,1.3 c-4.4,1.8 -7.9,5.4 -9.8,10.1 c-2,5 -2.2,10.7 -0.4,15.7 c0,0 0,0 0,0 c1,-0.4 2.1,-0.6000000000000001 3.2,-0.6000000000000001 c0.2,0 0.5,0 0.7000000000000001,0 c0.1,0 0.30000000000000004,-0.1 0.4,-0.1 c-1.7000000000000002,-4.2 -1.7000000000000002,-9.2 0.1,-13.5 c1.1,-2.6 3.2,-6 7.5,-7.7 c2.8,-1.1 5.8,-1.5 8.9,-1.5 c2.6,0 5.2,0.2 7.7,0.5 c0.8,0.1 1.6,0.30000000000000004 2.4,0.6000000000000001 c0.6000000000000001,0.2 1.2,0.4 1.9,0.5 c0.6000000000000001,0.1 1.1,0.2 1.7000000000000002,0.30000000000000004 c0.9,0.2 1.7000000000000002,0.30000000000000004 2.5,0.5 c3.2,0.9 6.5,2.2 8.9,3.2 l0.9,0.4 c5.2,2.1 10.6,4.3 15.4,7.4 c3.8,2.4 8.8,6.5 10.7,11.9 c1.3,3.7 1.5,7.9 0.5,11.9 c-1.4,0.2 -2.9,0.4 -4.3,0.6000000000000001 c-2.4,0.30000000000000004 -4.8,0.6000000000000001 -7.2,0.9 c-0.30000000000000004,0.30000000000000004 -0.7000000000000001,0.5 -1,0.7000000000000001 c-0.4,0.4 -0.9,0.7000000000000001 -1.4,1 c-0.6000000000000001,0.6000000000000001 -1.3,1.1 -2.1,1.5 c-0.7000000000000001,0.7000000000000001 -1.6,1.3 -2.5,1.7000000000000002 c5,-0.4 9.9,-1 14.7,-1.7000000000000002 c1.4,-0.2 2.8,-0.4 4.2,-0.6000000000000001 c0.1,0.1 0.2,0.1 0.4,0.2 c0.8,0.30000000000000004 1.7000000000000002,0 2.2,-0.6000000000000001 c12.2,-1.9 24,-4.3 33.3,-6.3 c14.6,-3.1 26.1,-7.6 36.5,-14.1 c8.8,-5.5 17,-11.9 25.1,-18.2 c2.1,-1.7000000000000002 4.3,-3.4 6.5,-5 c3.5,-2.7 7.1,-5.4 10.6,-8.1 c7.3,-5.6 14.9,-11.4 22.4,-17.2 c10.4,-8 20.4,-15.9 29.1,-25.5 c7.9,-8.7 14.6,-18.5 19.9,-29.2 c5.2,-10.7 8.9,-22 10.9,-33.5 c0.9,-5.5 1.4,-10.7 1.3,-15.7 C294.7382396697998,231.20000534057618 294.5382396697998,231.60000534057616 294.2382396697998,232.0000053405762 z" style="fill: rgb(189, 186, 205);" id="svg_1856"/>
		</g>
		<g id="svg_1857">
			<path class="st27" d="M305.2382396697998,143.40000534057617 c-0.30000000000000004,-7.8 -1.7000000000000002,-16.1 -3.9,-24 c-0.30000000000000004,1.1 -0.9,2.1 -1.6,3.1 c-0.30000000000000004,1 -0.7000000000000001,2 -1.3,2.8 c3.7,15.9 4,33.9 -2.7,44.9 c-0.8,1.4 -1.5,2.7 -2.2,3.9 c-1.7000000000000002,3.2 -3.1,5.8 -6.1,7.9 c-3.2,2.2 -6.4,4.3 -9.8,6.3 c-0.6000000000000001,0.4 -1.1,0.8 -1.8,1.1 c-0.30000000000000004,0.2 -0.7000000000000001,0.4 -1,0.6000000000000001 c-0.5,0.30000000000000004 -1,0.6000000000000001 -1.6,0.8 c-4.4,2.4 -9,4.6 -13.7,6.6 c-10,4.2 -20.6,7.5 -31.5,9.6 c-12.6,2.5 -23.1,3.6 -32.9,3.3 c-34.4,-0.8 -49.3,-11.7 -55.8,-20.6 c-5.8,-8.1 -6.2,-16.5 -4.6,-21.8 c5.3,-17.5 20.9,-26.2 34.4,-27.4 c0.4,-0.30000000000000004 0.8,-0.6000000000000001 1.3,-0.8 c0.4,-0.4 0.9,-0.8 1.4,-1.1 c0.4,-0.4 0.9,-0.8 1.4,-1.1 c0.5,-0.5 1,-0.9 1.5,-1.2 c-0.8,-0.1 -1.6,-0.1 -2.3,-0.1 h-0.1 c-15.7,0 -35.4,9.6 -41.7,30.6 c-1.9,6.2 -1.5,16.2 5.3,25.5 c7.1,9.7 23.1,21.5 59.2,22.4 c10.2,0.2 21,-0.8 33.9,-3.4 c11.2,-2.2 22.1,-5.6 32.4,-9.9 c5.1,-2.2 10.1,-4.6 14.9,-7.3 c0,0 0,0.1 0.1,0.1 c0.7000000000000001,-0.5 1.4,-0.9 2.1,-1.2 c0.5,-0.4 1,-0.7000000000000001 1.6,-1 c0,0 0,-0.1 -0.1,-0.1 c3.4,-2 6.8,-4.2 10,-6.5 c3.9,-2.7 5.6,-6 7.4,-9.4 c0.6000000000000001,-1.2 1.3,-2.4 2.1,-3.7 C303.7382396697998,165.30000534057618 305.7382396697998,155.30000534057618 305.2382396697998,143.40000534057617 z" style="fill: rgb(189, 186, 205);" id="svg_1858"/>
		</g>
	</g>
	<g id="svg_1859">
		<path class="st27" d="M134.9382396697998,412.80000534057615 c-10.2,0 -19.8,-0.2 -29.5,-1 l-0.1,0 c-3,-0.2 -6.1,-0.5 -9.1,-1.5 l-0.1,0 c-0.8,-0.30000000000000004 -2.5,-0.8 -2.7,-2.6 c-0.1,-1 0.5,-1.8 1,-2.6 c0.1,-0.1 0.1,-0.2 0.2,-0.30000000000000004 c0.5,-1 1,-2.1 1.4,-3.2 c0.4,-1.1 1.6,-1.7000000000000002 2.7,-1.3 c1.1,0.4 1.7000000000000002,1.6 1.3,2.7 c-0.4,1.3 -1,2.5 -1.6,3.7 c2.3,0.7000000000000001 4.7,0.8 7.2,1.1 l0.1,0 c13.3,1.1 26.5,1 41.1,0.9 c12.4,-0.1 25.6,-0.5 41.7,-1.2 c11.1,-0.5 22.4,-1.1 33.4,-1.6 c2.8,-0.1 5.5,-0.30000000000000004 8.3,-0.4 l0.4,0 c13.4,-0.7000000000000001 27.2,-1.4 40.9,-1 l2.5,0.1 c5.9,0.2 12,0.30000000000000004 17.9,0.30000000000000004 c0.6000000000000001,0 1.3,0 1.9,0 c2.7,0 5.5,0 8,-0.4 c0.5,-0.1 1,-0.2 1.5,-0.4 c0.8,-0.2 1.6,-0.5 2.7,-0.6000000000000001 c1.1,-0.1 2.2,-0.2 3.3,-0.30000000000000004 l1.4,-0.1 c10.4,-0.9 21.1,-0.30000000000000004 31.3,0.30000000000000004 c3.3,0.2 6.7,0.4 10,0.5 c16.6,0.7000000000000001 29.3,1.2 41.5,1.7000000000000002 c15,0.5 28.5,1 41.3,1.3 c1.3,0 2.1,0 3,-0.2 c1,-0.30000000000000004 2,-0.4 2.9,-0.5 c0.4,0 0.8,-0.1 1.1,-0.1 c1.3,-0.1 2.5,-0.30000000000000004 3.4,-0.7000000000000001 c0.4,-0.2 0.9,-0.6000000000000001 0.7000000000000001,-1.1 c-0.4,-1 -2.5,-1.5 -4.1,-1.8 c-0.6000000000000001,-0.1 -1.1,-0.2 -1.6,-0.4 l-0.30000000000000004,-0.1 c-5.8,-1.6 -11.8,-3.4 -17.5,-5.7 c-5.9,-2.4 -12,-5.3 -16.3,-9.9 c-4.1,-4.4 -7.1,-10 -10.4,-16.2 c-1.4,-2.7 -2.8,-5.6 -4,-8.6 c-0.30000000000000004,-0.8 -0.7000000000000001,-1.5 -1,-2.3 c-0.9,-2 -1.9,-4.1 -2.5,-6.4 c-0.6000000000000001,-2.2 -0.9,-4.4 -1.1,-6.6 c-0.1,-1.1 -0.2,-2.1 -0.4,-3.1 c-0.5,-3.2 -0.5,-6.4 0.1,-10.4 c0.2,-1.5 0.4,-3.1 0.8,-5 c0.1,-0.4 0.1,-1 0.2,-1.5 c0.2,-1.4 0.30000000000000004,-2.9 0.9,-4.2 c0.2,-0.6000000000000001 0.6000000000000001,-1 0.8,-1.2 c0,0 0.1,-0.1 0.1,-0.1 c0.1,-0.2 0.1,-0.5 0.2,-0.8 c0.1,-0.30000000000000004 0.1,-0.6000000000000001 0.2,-0.9 c0.4,-1.4 0.8,-2.9 1.5,-4.4 c1.1,-2.7 2.7,-5 4.3,-7.3 c0.30000000000000004,-0.4 0.5,-0.8 0.8,-1.2 c0.2,-0.30000000000000004 0.4,-0.5 0.5,-0.8 c0.8,-1.2 1.6,-2.4 2.5,-3.5 c0.6000000000000001,-0.6000000000000001 1.2,-1.2 1.7000000000000002,-1.7000000000000002 c0.4,-0.4 0.8,-0.7000000000000001 1.1,-1 c4.1,-4.2 9.9,-6.4 15,-8.3 c0.7000000000000001,-0.30000000000000004 1.4,-0.5 2.1,-0.8 c6.2,-2.4 12.7,-4.7 19.5,-5.1 c2.8,-0.2 5.7,-0.1 8.2,0 c3.6,0.1 6.3,1.2 8.2,3.3 c0.8,0.9 0.7000000000000001,2.2 -0.2,3 s-2.2,0.7000000000000001 -3,-0.2 c-1.1,-1.2 -2.7,-1.8 -5.1,-1.9 c-2.4,-0.1 -5.2,-0.1 -7.8,0 c-6.1,0.30000000000000004 -12.3,2.5 -18.2,4.8 c-0.7000000000000001,0.30000000000000004 -1.4,0.5 -2.1,0.8 c-4.9,1.8 -10,3.7 -13.5,7.3 c-0.5,0.5 -0.9,0.9 -1.4,1.3 c-0.5,0.4 -1,0.9 -1.4,1.3 c-0.8,0.9 -1.5,1.9 -2.2,3 c-0.2,0.30000000000000004 -0.4,0.6000000000000001 -0.6000000000000001,0.8 c-0.30000000000000004,0.4 -0.5,0.8 -0.8,1.2 c-1.5,2.1 -3,4.3 -3.9,6.5 c-0.5,1.3 -0.9,2.7 -1.3,4 c0,0.1 -0.1,0.4 -0.1,0.6000000000000001 c-0.1,0.6000000000000001 -0.30000000000000004,1.3 -0.6000000000000001,1.9 c-0.2,0.4 -0.5,0.8 -0.7000000000000001,1 c0,0 -0.1,0.1 -0.1,0.1 c-0.30000000000000004,0.8 -0.4,1.9 -0.5,3 c-0.1,0.6000000000000001 -0.1,1.2 -0.2,1.7000000000000002 c-0.30000000000000004,1.9 -0.6000000000000001,3.4 -0.7000000000000001,4.9 c-0.5,3.6 -0.5,6.4 -0.1,9.3 c0.2,1.1 0.30000000000000004,2.2 0.4,3.3 c0.2,2 0.4,4 0.9,5.8 c0.6000000000000001,2 1.4,3.9 2.3,5.9 c0.4,0.8 0.7000000000000001,1.6 1,2.4 c1.2,2.9 2.5,5.6 3.9,8.3 c2.5,4.8 5.6,10.9 9.7,15.2 c3.7,4 9.3,6.6 14.8,8.8 c5.5,2.2 11.4,3.9 17.1,5.5 l0.30000000000000004,0.1 c0.4,0.1 0.8,0.2 1.3,0.30000000000000004 c2.5,0.6000000000000001 6,1.3 7.2,4.5 c0.9,2.5 -0.30000000000000004,5.3 -2.9,6.5 c-1.6,0.7000000000000001 -3.2,0.9 -4.7,1 c-0.30000000000000004,0 -0.7000000000000001,0.1 -1,0.1 c-0.8,0.1 -1.6,0.2 -2.2,0.4 c-1.6,0.5 -3,0.4 -4.3,0.4 c-12.8,-0.30000000000000004 -26.4,-0.7000000000000001 -41.4,-1.3 c-12.1,-0.4 -24.9,-1 -41.5,-1.7000000000000002 c-3.3,-0.1 -6.8,-0.30000000000000004 -10.1,-0.5 c-10.1,-0.6000000000000001 -20.6,-1.2 -30.7,-0.30000000000000004 l-1.4,0.1 c-1.1,0.1 -2.2,0.2 -3.4,0.30000000000000004 c-0.6000000000000001,0 -1.1,0.2 -1.8,0.4 c-0.6000000000000001,0.2 -1.3,0.4 -2.1,0.5 c-2.8,0.4 -5.8,0.4 -8.6,0.5 c-0.6000000000000001,0 -1.3,0 -1.9,0 c-6,0.1 -12.2,-0.1 -18.1,-0.30000000000000004 L271.3382396697998,408.4000053405762 c-13.5,-0.4 -27.3,0.30000000000000004 -40.5,1 l-0.4,0 c-2.8,0.1 -5.5,0.30000000000000004 -8.3,0.4 c-11,0.6000000000000001 -22.3,1.2 -33.4,1.6 c-16.1,0.7000000000000001 -29.4,1.1 -41.8,1.2 C142.8382396697998,412.7000053405762 138.8382396697998,412.80000534057615 134.9382396697998,412.80000534057615 z" style="fill: rgb(189, 186, 205);" id="svg_1860"/>
	</g>
</g></g></svg>